<?xml version="1.0" encoding="UTF-8" standalone="no"?>
<svg
   xmlns:dc="http://purl.org/dc/elements/1.1/"
   xmlns:cc="http://creativecommons.org/ns#"
   xmlns:rdf="http://www.w3.org/1999/02/22-rdf-syntax-ns#"
   xmlns:svg="http://www.w3.org/2000/svg"
   xmlns="http://www.w3.org/2000/svg"
   xmlns:sodipodi="http://sodipodi.sourceforge.net/DTD/sodipodi-0.dtd"
   xmlns:inkscape="http://www.inkscape.org/namespaces/inkscape"
   width="24"
   height="24"
   viewBox="0 0 24 24"
   id="svg2"
   version="1.1"
   inkscape:version="0.91 r13725"
   sodipodi:docname="add.svg">
  <metadata
     id="metadata10">
    <rdf:RDF>
      <cc:Work
         rdf:about="">
        <dc:format>image/svg+xml</dc:format>
        <dc:type
           rdf:resource="http://purl.org/dc/dcmitype/StillImage" />
      </cc:Work>
    </rdf:RDF>
  </metadata>
  <defs
     id="defs8" />
  <sodipodi:namedview
     pagecolor="#ffffff"
     bordercolor="#666666"
     borderopacity="1"
     objecttolerance="10"
     gridtolerance="10"
     guidetolerance="10"
     inkscape:pageopacity="0"
     inkscape:pageshadow="2"
     inkscape:window-width="1366"
     inkscape:window-height="705"
     id="namedview6"
     showgrid="false"
     inkscape:zoom="12.330175"
     inkscape:cx="8.4789414"
     inkscape:cy="8.5576975"
     inkscape:window-x="-8"
     inkscape:window-y="-8"
     inkscape:window-maximized="1"
     inkscape:current-layer="svg2" />
  <path
     d="M12 0c-6.627 0-12 5.373-12 12s5.373 12 12 12 12-5.373 12-12-5.373-12-12-12zm7 14h-5v5h-4v-5h-5v-4h5v-5h4v5h5v4z"
     id="path4"
     style="fill:#c50000;fill-opacity:1" />
  <path
     style="fill:#c50000;fill-opacity:1;stroke:none;stroke-width:2;stroke-linejoin:miter;stroke-miterlimit:4;stroke-dasharray:none;stroke-opacity:1"
     d="M 11.034226,23.943632 C 10.279596,23.853683 10.017597,23.815069 9.6112265,23.733905 7.4201857,23.296296 5.3553943,22.208408 3.6975512,20.618137 2.4401798,19.412014 1.3444574,17.73973 0.74593968,16.11341 0.5228399,15.507193 0.24099719,14.386758 0.13489593,13.684272 0.03054055,12.993345 0.01497386,11.15946 0.10796583,10.511682 0.42227235,8.3222364 1.169797,6.4900472 2.4397925,4.796355 2.9353036,4.1355313 4.1282392,2.933777 4.7493489,2.4697254 6.9254324,0.84390188 9.3307257,0.03747038 12.003886,0.03747038 c 0.921175,0 1.458127,0.05014953 2.315872,0.21629481 5.068098,0.98169111 8.975724,5.20925821 9.573492,10.35733181 0.102274,0.8808 0.06827,2.506914 -0.0692,3.309002 -0.436705,2.548067 -1.566125,4.741057 -3.371509,6.54644 -1.838749,1.83875 -4.078105,2.965845 -6.735611,3.390115 -0.44696,0.07136 -2.307644,0.131684 -2.682705,0.08698 z m 2.985967,-7.41336 0,-2.496082 2.496082,0 2.496081,0 0,-2.029524 0,-2.0295248 -2.496081,0 -2.496082,0 0,-2.4960816 0,-2.4960817 -2.029524,0 -2.0295245,0 0,2.4960817 0,2.4960816 -2.4960816,0 -2.4960817,0 0,2.0295248 0,2.029524 2.4960817,0 2.4960816,0 0,2.496082 0,2.496081 2.0295245,0 2.029524,0 0,-2.496081 z"
     id="path4138"
     inkscape:connector-curvature="0" />
</svg>
