<?xml version="1.0" encoding="UTF-8" standalone="no"?>
<svg
   xmlns:dc="http://purl.org/dc/elements/1.1/"
   xmlns:cc="http://creativecommons.org/ns#"
   xmlns:rdf="http://www.w3.org/1999/02/22-rdf-syntax-ns#"
   xmlns:svg="http://www.w3.org/2000/svg"
   xmlns="http://www.w3.org/2000/svg"
   xmlns:sodipodi="http://sodipodi.sourceforge.net/DTD/sodipodi-0.dtd"
   xmlns:inkscape="http://www.inkscape.org/namespaces/inkscape"
   width="16.72912"
   height="16.72912"
   viewBox="0 0 16.72912 16.729121"
   id="svg4136"
   version="1.1"
   inkscape:version="0.91 r13725"
   sodipodi:docname="logo.svg"
   inkscape:export-filename="C:\Users\luisr\PycharmProjects\ProyectoALS\gamereview\res\logo.png"
   inkscape:export-xdpi="10327.106"
   inkscape:export-ydpi="10327.106">
  <metadata
     id="metadata4144">
    <rdf:RDF>
      <cc:Work
         rdf:about="">
        <dc:format>image/svg+xml</dc:format>
        <dc:type
           rdf:resource="http://purl.org/dc/dcmitype/StillImage" />
        <dc:title />
      </cc:Work>
    </rdf:RDF>
  </metadata>
  <defs
     id="defs4142" />
  <sodipodi:namedview
     pagecolor="#ffffff"
     bordercolor="#666666"
     borderopacity="1"
     objecttolerance="10"
     gridtolerance="10"
     guidetolerance="10"
     inkscape:pageopacity="0"
     inkscape:pageshadow="2"
     inkscape:window-width="1366"
     inkscape:window-height="705"
     id="namedview4140"
     showgrid="false"
     inkscape:zoom="24.660349"
     inkscape:cx="5.9917918"
     inkscape:cy="8.2572082"
     inkscape:window-x="-8"
     inkscape:window-y="-8"
     inkscape:window-maximized="1"
     inkscape:current-layer="svg4136"
     fit-margin-top="0"
     fit-margin-left="0"
     fit-margin-right="0"
     fit-margin-bottom="0" />
  <path
     d="m 2.7653838,2.8346315 0.531539,0.097624 C 3.1354656,4.0118888 3.6556663,4.1436569 4.5200975,4.3143784 5.1863352,4.4456657 5.9401052,4.6135018 5.9401052,5.8936728 l 0,0.3072987 -0.536528,0 0,-0.3072987 c 0,-0.7482893 -0.217242,-0.8699584 -0.9809889,-1.0204819 C 3.2506626,4.6423561 2.5644693,4.2042509 2.7653838,2.8346315 Z M 9.8236962,7.345528 C 9.7320862,6.955512 9.4014582,6.6818769 9.0223052,6.6818769 l -7.0714641,0 c -0.3791525,0 -0.709777,0.2736351 -0.8018439,0.6636511 -0.066216,0.289985 -1.10480303,4.724417 -1.10480303,4.990358 0,0.663168 0.4961636,1.07867 1.03677333,1.07867 0.2870854,0 0.5728104,-0.131767 0.8299627,-0.375587 1.628632,-1.542745 1.7098142,-2.02894 2.158357,-2.02894 l 2.840922,0 c 0.440379,0 0.527457,0.489562 2.152008,2.02894 0.257152,0.24382 0.542877,0.375587 0.829962,0.375587 0.5406098,0 1.0367738,-0.415502 1.0367738,-1.07867 0,-0.265941 -1.0385878,-4.700373 -1.1052568,-4.990358 z m -5.6977176,1.740878 -0.9070632,0 0,0.961811 -0.4535316,0 0,-0.961811 -0.9070632,0 0,-0.480906 0.9070632,0 0,-0.961811 0.4535316,0 0,0.961811 0.9070632,0 0,0.480906 z m 1.8141266,0.480906 -0.907063,0 0,-0.480906 0.907063,0 0,0.480906 z m 1.247212,-0.360679 c -0.187763,0 -0.340149,-0.161104 -0.340149,-0.36068 0,-0.199576 0.152386,-0.360679 0.340149,-0.360679 0.187762,0 0.340148,0.161103 0.340148,0.360679 0,0.199576 -0.152386,0.36068 -0.340148,0.36068 z m 0.79368,0.841584 c -0.187762,0 -0.340149,-0.161103 -0.340149,-0.360679 0,-0.199576 0.152387,-0.360679 0.340149,-0.360679 0.187762,0 0.340149,0.161103 0.340149,0.360679 0,0.199576 -0.152387,0.360679 -0.340149,0.360679 z m 0,-1.698078 c -0.187762,0 -0.340149,-0.161103 -0.340149,-0.360679 0,-0.199576 0.152387,-0.360679 0.340149,-0.360679 0.187762,0 0.340149,0.161103 0.340149,0.360679 0,0.199576 -0.152387,0.360679 -0.340149,0.360679 z m 0.786424,0.856494 c -0.187762,0 -0.340149,-0.161104 -0.340149,-0.36068 0,-0.199576 0.152387,-0.360679 0.340149,-0.360679 0.187762,0 0.340149,0.161103 0.340149,0.360679 0,0.199576 -0.152387,0.36068 -0.340149,0.36068 z"
     id="path4138"
     inkscape:connector-curvature="0"
     inkscape:export-xdpi="3402.6707"
     inkscape:export-ydpi="3402.6707" />
  <path
     style="fill:#c50000;fill-opacity:1;stroke:none;stroke-width:2;stroke-linejoin:miter;stroke-miterlimit:4;stroke-dasharray:none;stroke-opacity:1"
     d="m 0.42785087,13.095143 c -0.1409242,-0.140924 -0.2834356,-0.364637 -0.316692,-0.497141 -0.0401221,-0.159859 0.1381469,-1.11678 0.5298484,-2.844146 C 1.1616343,7.457942 1.2583464,7.126929 1.4602439,6.949883 l 0.228922,-0.200743 3.8159043,0 3.815903,0 0.197703,0.210444 c 0.108736,0.115745 0.240384,0.365023 0.292549,0.553952 0.2521258,0.913126 1.0574388,4.669146 1.0575058,4.932258 1.12e-4,0.444469 -0.486201,0.905575 -0.9550818,0.905575 -0.453025,0 -0.727948,-0.207304 -1.899861,-1.432576 l -0.936803,-0.979458 -1.601754,0.0016 -1.6017533,0.0016 -1.0250991,1.077229 C 2.2845743,12.612153 1.7125617,13.154159 1.5772396,13.224137 1.165441,13.437086 0.71977787,13.38707 0.42785087,13.095143 Z m 2.85731253,-3.490985 0,-0.446096 0.4460967,0 0.4460967,0 0,-0.312268 0,-0.312268 -0.4460967,0 -0.4460967,0 0,-0.446096 c 0,-0.436184 -0.00595,-0.446097 -0.2676579,-0.446097 -0.2617101,0 -0.267658,0.0099 -0.267658,0.446097 l 0,0.446096 -0.4460967,0 -0.4460966,0 0,0.312268 0,0.312268 0.4460966,0 0.4460967,0 0,0.446096 c 0,0.436184 0.00595,0.446097 0.267658,0.446097 0.26171,0 0.2676579,-0.0099 0.2676579,-0.446097 z m 4.9784388,0.339034 c 0.164453,-0.164453 0.127581,-0.403763 -0.08517,-0.55278 -0.333767,-0.233779 -0.713097,0.123442 -0.518063,0.487868 0.102969,0.192398 0.43953,0.228615 0.603233,0.06491 z M 5.9617432,9.3365 c 0,-0.264954 -0.005,-0.267658 -0.490706,-0.267658 -0.48575,0 -0.490707,0.0027 -0.490707,0.267658 0,0.264955 0.005,0.267658 0.490707,0.267658 0.485749,0 0.490706,-0.0027 0.490706,-0.267658 z m 1.498885,-0.196282 c 0.146748,-0.146748 0.134596,-0.472773 -0.02248,-0.603134 -0.173789,-0.144233 -0.402421,-0.08837 -0.550067,0.134409 -0.230723,0.348126 0.27727,0.764002 0.572547,0.468725 z m 1.572809,-0.03314 c 0.07711,-0.07711 0.140202,-0.194689 0.140202,-0.261285 0,-0.177257 -0.253772,-0.401487 -0.454382,-0.401487 -0.240685,0 -0.398484,0.364603 -0.265413,0.61325 0.119816,0.223877 0.382771,0.246345 0.579593,0.04952 z M 8.2636022,8.248024 c 0.164453,-0.164453 0.127581,-0.403764 -0.08517,-0.55278 -0.333767,-0.23378 -0.713097,0.123442 -0.518063,0.487867 0.102969,0.192399 0.43953,0.228615 0.603233,0.06491 z"
     id="path4720"
     inkscape:connector-curvature="0"
     inkscape:export-xdpi="3402.6707"
     inkscape:export-ydpi="3402.6707" />
  <path
     style="fill:#d00000;fill-opacity:1;stroke:none;stroke-width:0.17843866;stroke-linejoin:miter;stroke-miterlimit:4;stroke-dasharray:none;stroke-opacity:1"
     d="m 5.4264272,5.7797588 c 0,-0.5520102 -0.228606,-0.7540934 -1.1192198,-0.9893689 C 3.1833514,4.4934983 2.7521025,4.0397039 2.750345,3.1521352 2.7499123,2.9335132 2.7800773,2.9045249 2.9824484,2.9290869 c 0.2054603,0.024937 0.2359186,0.073584 0.261034,0.4169167 0.041576,0.5683482 0.2710336,0.7618813 1.170893,0.9875727 0.4172138,0.1046401 0.8522938,0.2516647 0.9668438,0.3267211 0.281132,0.184205 0.491305,0.6541721 0.491305,1.0986082 0,0.3305988 -0.02141,0.3656985 -0.223049,0.3656985 -0.199446,0 -0.223048,-0.03649 -0.223048,-0.3448453 z"
     id="path4722"
     inkscape:connector-curvature="0"
     inkscape:export-xdpi="3402.6707"
     inkscape:export-ydpi="3402.6707" />
  <path
     id="path4746"
     d="m 9.6797942,3.6788364 c 0.9636018,0 1.7475558,0.4746436 1.7475558,1.0580384 0,0.6497287 -0.899117,1.0519605 -1.7318288,1.0519605 -0.3385,0 -0.591197,-0.052459 -0.767875,-0.085098 -0.174755,0.081001 -0.278736,0.1370283 -0.746556,0.2404937 0.0935,-0.1814272 0.126349,-0.3631186 0.105202,-0.5635738 C 8.1398472,5.2485179 7.9324122,5.063523 7.9324122,4.7368748 7.9322372,4.15348 8.7161912,3.6788364 9.6797932,3.6788364 Z m 0,-0.2642789 c -1.107601,0 -2.097067,0.5584204 -2.097067,1.3223173 0,0.2708854 0.12897,0.5368817 0.357724,0.7432832 0.0096,0.2418148 -0.178774,0.5888123 -0.348287,0.8414623 0.454714,-0.06211 1.101134,-0.199265 1.3942,-0.335105 0.247804,0.04559 0.484946,0.06647 0.709332,0.06647 1.2379688,0 2.0813388,-0.6391572 2.0813388,-1.3162386 C 11.77686,3.9688856 10.78058,3.4145615 9.6797942,3.4145615 Z m 0.178949,1.8466458 c 0,0.074791 -0.08004,0.1354427 -0.178949,0.1354427 -0.09874,0 -0.17895,-0.060651 -0.17895,-0.1354427 0,-0.074658 0.08022,-0.1353106 0.17895,-0.1353106 0.09892,0 0.178949,0.060651 0.178949,0.1353106 z M 10.05814,4.1787186 c -0.08702,-0.06673 -0.2168718,-0.103465 -0.3652398,-0.103465 -0.312113,0 -0.513955,0.1679491 -0.513955,0.4277347 l 0.287822,0 c 0,-0.1608134 0.118834,-0.2178976 0.220367,-0.2178976 0.0907,0 0.186988,0.045588 0.195202,0.1326679 0.0091,0.091704 -0.05574,0.1382176 -0.137707,0.1972838 -0.202193,0.1453532 -0.206037,0.2157834 -0.204989,0.3755397 l 0.287123,0 c -0.0017,-0.071884 0.0044,-0.1302893 0.133863,-0.2358685 0.09699,-0.079019 0.2175698,-0.1773309 0.2200178,-0.3273089 0.0014,-0.100162 -0.04072,-0.1861842 -0.122504,-0.2486861 z"
     inkscape:connector-curvature="0"
     style="stroke:none"
     inkscape:export-xdpi="3402.6707"
     inkscape:export-ydpi="3402.6707" />
  <path
     inkscape:connector-curvature="0"
     d="m 13.873069,6.2580864 c 1.332553,0 2.416673,0.6203156 2.416673,1.3827556 0,0.849135 -1.243378,1.374814 -2.394925,1.374814 -0.468107,0 -0.817559,-0.06856 -1.061884,-0.111218 C 12.591266,9.010297 12.447472,9.083521 11.80053,9.218741 11.92983,8.981632 11.975256,8.744179 11.946012,8.482203 11.743495,8.30951 11.456636,8.067739 11.456636,7.64084 11.456394,6.878399 12.540514,6.2580837 13.873067,6.2580837 Z m 0,-0.3453877 c -1.531688,0 -2.900008,0.7298042 -2.900008,1.7281433 0,0.354023 0.178351,0.701654 0.494692,0.971402 0.01328,0.316028 -0.247224,0.769522 -0.481642,1.099711 0.628819,-0.08117 1.522745,-0.26042 1.928022,-0.43795 0.342685,0.05958 0.670626,0.08687 0.980926,0.08687 1.711972,0 2.878258,-0.835318 2.878258,-1.7202 -2.42e-4,-1.0035221 -1.377985,-1.7279711 -2.900248,-1.7279711 z m 0.247466,2.4133923 c 0,0.09774 -0.110686,0.177011 -0.247466,0.177011 -0.136547,0 -0.247468,-0.07926 -0.247468,-0.177011 0,-0.09757 0.110935,-0.176839 0.247468,-0.176839 0.136795,0 0.247466,0.07926 0.247466,0.176839 z m 0.275744,-1.414706 c -0.120339,-0.08721 -0.29991,-0.135219 -0.505086,-0.135219 -0.431617,0 -0.710742,0.219494 -0.710742,0.55901 l 0.398025,0 c 0,-0.210168 0.164334,-0.284772 0.304743,-0.284772 0.125428,0 0.258583,0.05958 0.269942,0.173384 0.01258,0.119844 -0.07708,0.180638 -0.190433,0.257831 -0.27961,0.189963 -0.284926,0.282008 -0.283477,0.490796 l 0.397059,0 c -0.0024,-0.09394 0.0061,-0.170277 0.185118,-0.308259 0.134126,-0.103272 0.300875,-0.231755 0.30426,-0.427761 0.0019,-0.130903 -0.05631,-0.243325 -0.169409,-0.32501 z"
     id="path4755"
     style="stroke:none"
     inkscape:export-xdpi="3402.6707"
     inkscape:export-ydpi="3402.6707" />
  <path
     style="fill:#c50000;fill-opacity:1;stroke:none;stroke-width:2;stroke-linejoin:miter;stroke-miterlimit:4;stroke-dasharray:none;stroke-opacity:1"
     d="m 0.97888727,13.406216 c -0.033793,-0.0035 -0.085077,-0.01154 -0.1139647,-0.01797 l -0.052524,-0.01169 0,-0.02574 c 0,-0.02525 4.49e-4,-0.02564 0.023517,-0.0207 0.24173793,0.05177 0.48229743,0.02222 0.70368673,-0.08641 0.073849,-0.03624 0.1096774,-0.06218 0.236191,-0.171021 0.3145658,-0.27062 0.6904165,-0.647241 1.6039292,-1.607214 l 0.4940457,-0.519172 0.8915173,-4e-6 c 0.4903347,-3e-6 1.2106187,-0.0019 1.6006307,-0.0042 l 0.709114,-0.0042 0.104032,0.109362 c 0.05722,0.06015 0.102585,0.11081 0.100816,0.112579 -0.0018,0.0018 -0.0286,-0.01624 -0.05961,-0.04002 -0.06518,-0.04997 -0.125626,-0.0812 -0.192269,-0.09931 -0.04425,-0.01203 -0.13535,-0.01278 -1.541236,-0.01278 -1.4230363,0 -1.4964145,6.28e-4 -1.5406107,0.01317 -0.059967,0.01701 -0.129819,0.05246 -0.1882435,0.09552 -0.081171,0.05982 -0.1765898,0.158478 -0.4442684,0.459326 -0.4194222,0.47148 -0.5345764,0.594826 -0.8873188,0.950525 -0.2978249,0.300321 -0.5342596,0.528862 -0.6171833,0.59658 -0.2591375,0.211618 -0.5525359,0.311757 -0.83025123,0.283369 z"
     id="path4139"
     inkscape:connector-curvature="0"
     inkscape:export-xdpi="3402.6707"
     inkscape:export-ydpi="3402.6707" />
  <path
     style="fill:#c50000;fill-opacity:1;stroke:none;stroke-width:2;stroke-linejoin:miter;stroke-miterlimit:4;stroke-dasharray:none;stroke-opacity:1"
     d="m 9.7967652,13.40561 c -0.222777,-0.02144 -0.44431,-0.124652 -0.663135,-0.308955 -0.159475,-0.134317 -0.753384,-0.729239 -1.050646,-1.05244 -0.271562,-0.295258 -0.566268,-0.626671 -0.5615,-0.631439 0.0016,-0.0016 0.154087,0.155788 0.338964,0.349648 0.398249,0.417601 0.966802,0.988833 1.113289,1.118534 0.341921,0.302743 0.546516,0.424171 0.778004,0.46175 0.07071,0.01148 0.228236,0.01116 0.2936058,-5.85e-4 0.291115,-0.05233 0.587003,-0.274554 0.7336,-0.550972 0.05627,-0.106091 0.09051,-0.231223 0.09102,-0.332551 5.25e-4,-0.105594 -0.0902,-0.594714 -0.279179,-1.505057 -0.06536,-0.314864 -0.219994,-1.042297 -0.231876,-1.090805 -0.0034,-0.01408 -0.0011,-0.01628 0.0172,-0.01628 l 0.02119,0 0.05266,0.233356 c 0.278766,1.235274 0.435872,1.970131 0.466995,2.184352 0.02189,0.150688 -0.0094,0.355273 -0.07982,0.52238 -0.147456,0.349749 -0.468618,0.582335 -0.8561938,0.620054 -0.07885,0.0077 -0.09505,0.0076 -0.184168,-9.89e-4 z"
     id="path4141"
     inkscape:connector-curvature="0"
     inkscape:export-xdpi="3402.6707"
     inkscape:export-ydpi="3402.6707" />
  <path
     style="fill:#c50000;fill-opacity:1;stroke:none;stroke-width:2;stroke-linejoin:miter;stroke-miterlimit:4;stroke-dasharray:none;stroke-opacity:1"
     d="m 7.4636712,11.356802 c -0.03078,-0.03382 -0.0863,-0.09164 -0.123371,-0.128492 -0.04383,-0.04357 -0.06552,-0.06773 -0.06202,-0.06907 0.0034,-0.0013 0.04772,0.04211 0.120005,0.117559 0.125294,0.130759 0.130081,0.136098 0.124895,0.139303 -0.0019,0.0012 -0.02873,-0.02548 -0.05951,-0.0593 z"
     id="path4143"
     inkscape:connector-curvature="0"
     inkscape:export-xdpi="3402.6707"
     inkscape:export-ydpi="3402.6707" />
  <path
     style="fill:#c50000;fill-opacity:1;stroke:none;stroke-width:2;stroke-linejoin:miter;stroke-miterlimit:4;stroke-dasharray:none;stroke-opacity:1"
     d="m 10.352641,9.828785 c -0.0029,-0.01032 -0.0235,-0.103292 -0.04572,-0.206596 -0.20005,-0.930357 -0.4607128,-2.02886 -0.5217188,-2.19866 -0.07303,-0.203252 -0.17792,-0.373864 -0.329637,-0.536154 -0.05794,-0.06197 -0.102722,-0.115294 -0.09952,-0.118491 0.01366,-0.01366 0.140349,0.07586 0.222821,0.15746 0.09854,0.0975 0.168592,0.205473 0.209254,0.322553 0.01929,0.05556 0.5482828,2.320524 0.5958918,2.55143 0.0052,0.02529 0.0027,0.03621 -0.0095,0.04087 -0.01,0.0038 -0.0187,-0.0011 -0.02191,-0.01241 z"
     id="path4145"
     inkscape:connector-curvature="0"
     inkscape:export-xdpi="3402.6707"
     inkscape:export-ydpi="3402.6707" />
  <path
     style="fill:#c50000;fill-opacity:1;stroke:none;stroke-width:2;stroke-linejoin:miter;stroke-miterlimit:4;stroke-dasharray:none;stroke-opacity:1"
     d="m 10.354881,9.847912 c -2.55e-4,-0.0067 0.0016,-0.0078 0.01066,-0.0065 0.0146,0.0021 0.02163,-0.007 0.02125,-0.02756 -2.43e-4,-0.01318 2.82e-4,-0.01449 0.0027,-0.0066 0.0016,0.0054 0.0042,0.01636 0.0057,0.02441 l 0.0027,0.01465 -0.01938,0 c -0.01185,0 -0.02015,0.0019 -0.02135,0.0049 -0.0011,0.0027 -0.0021,0.0012 -0.0023,-0.0032 z"
     id="path4147"
     inkscape:connector-curvature="0"
     inkscape:export-xdpi="3402.6707"
     inkscape:export-ydpi="3402.6707" />
  <path
     style="fill:#c50000;fill-opacity:1;stroke:none;stroke-width:2;stroke-linejoin:miter;stroke-miterlimit:4;stroke-dasharray:none;stroke-opacity:1"
     d="m 10.704774,11.505439 c -0.05535,-0.28077 -0.23065,-1.118918 -0.32121,-1.535809 -0.01998,-0.09198 -0.02431,-0.117544 -0.02035,-0.120058 0.0039,-0.0025 0.0039,-0.0032 1.51e-4,-0.0033 -0.0027,-3.1e-5 -0.0046,-0.0014 -0.0043,-0.003 3.47e-4,-0.0016 -0.0012,-0.0073 -0.0034,-0.0127 -0.0022,-0.0054 -0.02548,-0.108203 -0.0517,-0.228516 C 10.187482,9.067484 10.006379,8.271335 9.9660862,8.116705 l -0.0053,-0.02051 0.01448,0 0.01448,0 0.01039,0.0459 c 0.0057,0.02524 0.04043,0.174219 0.07715,0.331055 0.08296,0.354379 0.257535,1.110675 0.28708,1.24367 0.01211,0.05453 0.02353,0.101987 0.02538,0.105469 0.0018,0.0035 0.0122,0.04676 0.02301,0.09617 0.01081,0.04941 0.05737,0.257715 0.103468,0.46289 0.09075,0.403961 0.170186,0.7634 0.225307,1.019532 0.01919,0.08916 0.03581,0.166064 0.03693,0.170898 0.002,0.0085 0.0012,0.0088 -0.02841,0.0088 l -0.03045,0 -0.01483,-0.07519 z"
     id="path4149"
     inkscape:connector-curvature="0"
     inkscape:export-xdpi="3402.6707"
     inkscape:export-ydpi="3402.6707" />
  <path
     style="fill:#c50000;fill-opacity:1;stroke:none;stroke-width:2;stroke-linejoin:miter;stroke-miterlimit:4;stroke-dasharray:none;stroke-opacity:1"
     d="m 10.697094,11.468319 c -0.07379,-0.364816 -0.166372,-0.808431 -0.277788,-1.331044 -0.03298,-0.154688 -0.06001,-0.283887 -0.06006,-0.28711 -5.7e-5,-0.0032 -0.0046,-0.02344 -0.01004,-0.04492 -0.0055,-0.02148 -0.0347,-0.152441 -0.06496,-0.291015 C 10.176391,9.020343 10.069463,8.550778 9.9678012,8.124581 l -0.0068,-0.02832 0.01431,0 0.01431,0 0.02853,0.12207 c 0.140804,0.602397 0.292589,1.258453 0.342254,1.479315 0.01402,0.06236 0.02716,0.117353 0.02919,0.122208 0.002,0.0049 0.01972,0.0809 0.03931,0.168985 0.01958,0.08809 0.0716,0.320996 0.115588,0.517578 0.0955,0.426794 0.235807,1.065143 0.235807,1.072867 0,7.44e-4 -0.01362,0.0013 -0.03027,0.0013 l -0.03027,-1.2e-5 -0.02271,-0.112294 0,1e-6 z"
     id="path4151"
     inkscape:connector-curvature="0"
     inkscape:export-xdpi="3402.6707"
     inkscape:export-ydpi="3402.6707" />
  <path
     style="fill:#c50000;fill-opacity:1;stroke:none;stroke-width:2;stroke-linejoin:miter;stroke-miterlimit:4;stroke-dasharray:none;stroke-opacity:1"
     d="m 7.4061762,11.281653 -0.285978,-0.298982 0,-0.878399 0,-0.8784 0.02051,0.0058 c 0.0337,0.0095 0.109081,0.01128 0.147718,0.0035 0.06334,-0.01281 0.117144,-0.04137 0.165049,-0.08759 0.05046,-0.04869 0.08063,-0.105036 0.09937,-0.185591 0.0087,-0.03728 0.01011,-0.05253 0.01018,-0.107869 8.5e-5,-0.0673 -0.003,-0.09108 -0.01947,-0.147754 -0.03612,-0.124632 -0.120776,-0.208438 -0.244136,-0.241676 -0.04597,-0.01239 -0.12904,-0.0082 -0.172379,0.0087 -0.0064,0.0025 -0.0068,-0.008 -0.0068,-0.187207 l 0,-0.189871 0.251639,0 0.251639,0 0.0067,0.02051 c 0.01092,0.03331 0.03871,0.08561 0.0582,0.109532 0.02642,0.03243 0.06124,0.05915 0.10563,0.08107 0.09566,0.04722 0.203723,0.05796 0.309442,0.03075 0.01672,-0.0043 0.04999,-0.01735 0.07393,-0.02899 0.03624,-0.01762 0.04921,-0.02655 0.07747,-0.0533 0.04792,-0.04536 0.08191,-0.096 0.09597,-0.142967 l 0.005,-0.0166 0.799899,0 c 0.758444,0 0.800004,3.54e-4 0.8019,0.0068 0.0033,0.01144 0.03574,0.149281 0.08101,0.344727 0.134953,0.582616 0.312754,1.387998 0.458982,2.079034 0.0081,0.0381 0.0154,0.06852 0.01631,0.06761 9.1e-4,-9.1e-4 -0.002,-0.0189 -0.0065,-0.03997 -0.0045,-0.02107 -0.04002,-0.187731 -0.07899,-0.370348 -0.03898,-0.182618 -0.07088,-0.334668 -0.07089,-0.337891 -1.1e-5,-0.0032 -0.0032,-0.01816 -0.0072,-0.0332 -0.0039,-0.01504 -0.03547,-0.156543 -0.07007,-0.314453 C 10.165163,8.973183 9.9791832,8.158657 9.9616762,8.10312 c -0.0018,-0.0057 3.85e-4,-0.0068 0.01373,-0.0068 0.0087,0 0.01589,10e-4 0.01589,0.0023 0,0.0013 0.04999,0.217042 0.1110908,0.479492 0.122932,0.528044 0.210008,0.905328 0.252127,1.092416 0.01524,0.06768 0.03021,0.130957 0.03327,0.140625 0.01226,0.03869 0.392572,1.750878 0.392572,1.76739 0,0.0012 -0.01381,0.0021 -0.03069,0.0021 l -0.03069,0 -0.02862,-0.143355 c -0.01574,-0.07885 -0.02919,-0.141661 -0.02988,-0.139589 -6.9e-4,0.0021 0.01106,0.06519 0.02611,0.140267 0.01505,0.07508 0.02736,0.137891 0.02736,0.139589 0,0.0017 -0.679904,0.0031 -1.5108968,0.0031 l -1.510898,0 -0.285977,-0.298981 z m 3.2274008,-0.122601 c -0.01453,-0.07105 -0.02715,-0.128452 -0.02805,-0.127553 -8.99e-4,8.99e-4 0.01025,0.05977 0.02477,0.130825 0.01453,0.07105 0.02715,0.128453 0.02805,0.127552 9e-4,-9e-4 -0.01025,-0.05977 -0.02477,-0.130824 z m -0.03032,-0.145801 c -0.0011,-0.0027 -0.002,-4.88e-4 -0.002,0.0049 0,0.0054 8.86e-4,0.0076 0.002,0.0049 0.0011,-0.0027 0.0011,-0.0071 0,-0.0098 z m -0.0361,-0.174498 c -0.01886,-0.09035 -0.03503,-0.163539 -0.03592,-0.162644 -8.95e-4,8.95e-4 0.01381,0.07555 0.03267,0.165899 0.01886,0.09035 0.03503,0.16354 0.03592,0.162644 8.95e-4,-8.95e-4 -0.01381,-0.07555 -0.03267,-0.165899 z m -0.04294,-0.205106 c -0.0037,-0.01852 -0.0074,-0.03292 -0.0084,-0.032 -9.21e-4,9.21e-4 0.0013,0.01683 0.005,0.03535 0.0037,0.01852 0.0074,0.03292 0.0084,0.032 9.21e-4,-9.21e-4 -0.0013,-0.01683 -0.005,-0.03535 z m -2.4859468,-0.58829 c 0.06883,-0.0084 0.131164,-0.03075 0.182174,-0.06539 0.03275,-0.02224 0.08225,-0.07621 0.102406,-0.111656 0.0094,-0.01654 0.02255,-0.04541 0.02921,-0.06415 0.01148,-0.03231 0.01211,-0.03711 0.01213,-0.09267 2.4e-5,-0.06927 -0.0046,-0.0902 -0.03295,-0.148437 -0.02217,-0.04559 -0.04038,-0.07107 -0.0793,-0.110985 -0.15675,-0.160783 -0.367723,-0.182182 -0.520265,-0.05277 -0.03506,0.02975 -0.06575,0.07042 -0.08809,0.116732 -0.02666,0.05529 -0.03632,0.09731 -0.03641,0.158353 -1.07e-4,0.07238 0.01346,0.126424 0.04948,0.197149 0.01608,0.03157 0.02581,0.04488 0.05138,0.07031 0.07877,0.07832 0.206979,0.118508 0.330229,0.103512 z m 0.787483,-0.814245 c 0.07731,-0.01939 0.150003,-0.06427 0.216514,-0.13368 0.0595,-0.06209 0.112112,-0.150775 0.126996,-0.214064 0.03112,-0.132344 -0.110431,-0.320938 -0.305693,-0.407275 -0.08111,-0.03586 -0.170602,-0.04181 -0.233605,-0.01551 -0.04853,0.02026 -0.09506,0.05754 -0.130497,0.10457 -0.109828,0.145752 -0.125733,0.358527 -0.03795,0.507667 0.04828,0.08202 0.121957,0.139654 0.204461,0.159933 0.04619,0.01135 0.1106,0.01069 0.159774,-0.0016 z"
     id="path4153"
     inkscape:connector-curvature="0"
     inkscape:export-xdpi="3402.6707"
     inkscape:export-ydpi="3402.6707" />
  <path
     style="fill:#c50000;fill-opacity:1;stroke:none;stroke-width:2;stroke-linejoin:miter;stroke-miterlimit:4;stroke-dasharray:none;stroke-opacity:1"
     d="m 2.370504,6.715569 0,-0.0332 2.9023432,0 2.902344,0 0,0.0332 0,0.0332 -2.902344,0 -2.9023432,0 0,-0.0332 z"
     id="path4155"
     inkscape:connector-curvature="0"
     inkscape:export-xdpi="3402.6707"
     inkscape:export-ydpi="3402.6707" />
  <path
     style="fill:#c50000;fill-opacity:1;stroke:none;stroke-width:2;stroke-linejoin:miter;stroke-miterlimit:4;stroke-dasharray:none;stroke-opacity:1"
     d="m 9.3475162,6.775447 -0.02486,-0.02751 -0.573242,-3.8e-5 -0.573243,-3.8e-5 0,-0.03135 0,-0.03136 0.47168,0.0011 c 0.524533,0.0013 0.490729,-3.45e-4 0.59082,0.02844 0.05473,0.01574 0.137937,0.05013 0.125663,0.05194 -0.01101,0.0016 -0.01069,0.0053 0.0018,0.0201 0.0056,0.0067 0.0094,0.01308 0.0083,0.01418 -0.0011,0.0011 -0.01318,-0.01039 -0.02685,-0.02552 z"
     id="path4157"
     inkscape:connector-curvature="0"
     inkscape:export-xdpi="3402.6707"
     inkscape:export-ydpi="3402.6707" />
  <path
     style="fill:#c50000;fill-opacity:1;stroke:none;stroke-width:2;stroke-linejoin:miter;stroke-miterlimit:4;stroke-dasharray:none;stroke-opacity:1"
     d="m 5.1488292,7.751774 0,-0.999993 2.09082,-9.84e-4 c 2.041002,-9.6e-4 2.091192,-8.08e-4 2.106445,0.0064 0.0086,0.0041 0.0165,0.0084 0.01758,0.0098 0.0011,0.0013 0.0134,0.0081 0.02739,0.01505 0.07062,0.03509 0.217041,0.166601 0.278978,0.250566 0.06434,0.08723 0.103883,0.167847 0.127532,0.260036 0.01801,0.0702 0.06989,0.286831 0.140362,0.586132 0.02833,0.120312 0.05205,0.219638 0.05272,0.220724 0.002,0.0032 0.1503628,0.642278 0.1503628,0.64752 0,0.0079 -0.02644,0.0061 -0.02887,-0.002 -0.0011,-0.0038 -0.02333,-0.09912 -0.04933,-0.211914 -0.05596,-0.242706 -0.09783,-0.419283 -0.09996,-0.42155 -0.0035,-0.0037 -6.82e-4,0.01018 0.01599,0.07931 0.01455,0.06033 0.1140678,0.488958 0.1263918,0.544388 l 0.0037,0.0166 -0.4771238,-1.6e-5 -0.477124,-1.6e-5 -0.0136,-0.02635 c -0.04548,-0.08815 -0.140187,-0.178446 -0.242263,-0.230983 -0.139253,-0.07167 -0.247364,-0.06702 -0.346177,0.01491 -0.06076,0.05037 -0.107278,0.13128 -0.136606,0.237577 -0.0011,0.0039 -0.0906,0.0049 -0.431007,0.0049 l -0.429659,0 -0.0043,-0.0166 c -0.03205,-0.124581 -0.09401,-0.204287 -0.19408,-0.249662 -0.07584,-0.03439 -0.171367,-0.03622 -0.249926,-0.0048 -0.05574,0.0223 -0.117968,0.06619 -0.161256,0.113726 -0.03084,0.03387 -0.07335,0.09708 -0.08808,0.130964 l -0.01146,0.02637 -0.84874,0 -0.84874,0 0,-0.999993 z m 2.925781,0.592273 c 0.11362,-0.02209 0.204859,-0.08857 0.25567,-0.186297 0.02675,-0.05144 0.03507,-0.08574 0.03503,-0.144265 -4.7e-5,-0.05825 -0.0065,-0.08717 -0.03128,-0.140045 -0.03068,-0.06549 -0.0745,-0.118165 -0.13806,-0.165969 -0.163828,-0.123212 -0.352922,-0.116608 -0.484856,0.01693 -0.105004,0.106282 -0.132622,0.257748 -0.07446,0.408344 0.03639,0.09421 0.09757,0.153745 0.197718,0.192402 0.06849,0.02643 0.163149,0.03388 0.240235,0.0189 z M 9.9496262,8.047614 C 9.9194262,7.921542 9.8455642,7.629115 9.8244572,7.552038 9.7742872,7.368824 9.7225522,7.250731 9.6283122,7.104306 c -0.01279,-0.01987 -0.02413,-0.03613 -0.02519,-0.03613 -0.0011,0 0.0018,0.0057 0.0064,0.0127 0.0681,0.103656 0.142636,0.257329 0.181798,0.374798 0.02523,0.07567 0.09317,0.338474 0.154742,0.598513 0.0071,0.0299 0.01356,0.05229 0.01441,0.04975 8.45e-4,-0.0025 -0.004,-0.02788 -0.01085,-0.05632 z m -0.42503,-1.083933 c -0.02002,-0.02384 -0.05266,-0.06062 -0.0948,-0.106833 -0.01842,-0.0202 -0.04259,-0.0478 -0.05371,-0.06134 -0.01112,-0.01354 -0.02023,-0.02241 -0.02023,-0.01971 0,0.0027 -0.0074,-0.0021 -0.01633,-0.01054 l -0.01633,-0.01544 0.0134,0.01627 c 0.01465,0.01779 0.20007,0.215853 0.202243,0.216037 7.37e-4,6.3e-5 -0.0057,-0.0082 -0.01425,-0.01844 z"
     id="path4159"
     inkscape:connector-curvature="0"
     inkscape:export-xdpi="3402.6707"
     inkscape:export-ydpi="3402.6707" />
  <path
     style="fill:#c50000;fill-opacity:1;stroke:none;stroke-width:2;stroke-linejoin:miter;stroke-miterlimit:4;stroke-dasharray:none;stroke-opacity:1"
     d="m 9.3910162,6.824032 c -0.005,-0.0053 -0.0083,-0.01061 -0.0072,-0.01169 0.0011,-0.0011 0.0061,0.0024 0.0111,0.0078 0.005,0.0053 0.0083,0.01061 0.0072,0.01169 -0.0011,0.0011 -0.0061,-0.0024 -0.0111,-0.0078 z"
     id="path4161"
     inkscape:connector-curvature="0"
     inkscape:export-xdpi="3402.6707"
     inkscape:export-ydpi="3402.6707" />
  <path
     style="fill:#c50000;fill-opacity:1;stroke:none;stroke-width:2;stroke-linejoin:miter;stroke-miterlimit:4;stroke-dasharray:none;stroke-opacity:1"
     d="m 9.3900342,6.823909 c -0.0038,-0.005 -0.0053,-0.01014 -0.0034,-0.01132 0.0048,-0.0029 0.01311,0.0078 0.01151,0.0148 -9.59e-4,0.0042 -0.0031,0.0033 -0.0081,-0.0035 z"
     id="path4163"
     inkscape:connector-curvature="0"
     inkscape:export-xdpi="3402.6707"
     inkscape:export-ydpi="3402.6707" />
  <path
     style="fill:#c50000;fill-opacity:1;stroke:none;stroke-width:2;stroke-linejoin:miter;stroke-miterlimit:4;stroke-dasharray:none;stroke-opacity:1"
     d="m 0.75341557,13.359628 c -0.1537604,-0.05194 -0.2757436,-0.125934 -0.3901414,-0.236651 -0.1908113,-0.184671 -0.2968014,-0.426012 -0.3148686,-0.716963 -0.0056,-0.09015 6.504e-4,-0.136891 0.055063,-0.411942 0.050933,-0.257461 0.2455194,-1.161328 0.2512464,-1.167055 7.207e-4,-7.2e-4 0.011672,-7.81e-4 0.024336,-1.35e-4 l 0.023025,0.0012 -0.034205,0.16211 c -0.1852239,0.87784 -0.2794368,1.448055 -0.2613985,1.58209 0.010105,0.07509 0.061667,0.183335 0.1478088,0.310301 0.124943,0.18416 0.2487443,0.301324 0.3972634,0.375966 0.047366,0.0238 0.1040079,0.04667 0.1433586,0.05788 0.021907,0.0062 0.025044,0.0082 0.020508,0.01272 -0.00322,0.0032 -0.00536,0.01381 -0.00536,0.02656 0,0.01166 -0.00132,0.02118 -0.00293,0.02116 -0.00161,-2.7e-5 -0.025781,-0.0078 -0.053711,-0.01721 z"
     id="path4165"
     inkscape:connector-curvature="0"
     inkscape:export-xdpi="3402.6707"
     inkscape:export-ydpi="3402.6707" />
  <path
     style="fill:#c50000;fill-opacity:1;stroke:none;stroke-width:2;stroke-linejoin:miter;stroke-miterlimit:4;stroke-dasharray:none;stroke-opacity:1"
     d="m 0.35544397,10.823321 c 0,-0.0023 0.1204044,-0.538992 0.1712001,-0.763077 C 0.65071327,9.512911 0.82665277,8.748162 1.1150817,7.502506 1.1382977,7.40224 1.1656457,7.295001 1.1758537,7.264197 1.1988027,7.194947 1.2384577,7.115137 1.2840099,7.04652 1.3292859,6.97832 1.439926,6.867047 1.5054835,6.823781 l 0.047947,-0.03164 0.0402,0.0016 0.0402,0.0016 -0.1052894,0.09224 C 1.3900447,7.008909 1.3567292,7.052587 1.2934061,7.195857 1.1825989,7.44656 1.0519978,7.945956 0.73936467,9.314415 c -0.1507514,0.65987 -0.2625699,1.160336 -0.3212216,1.437692 l -0.015479,0.0732 -0.02361,0 c -0.012986,0 -0.02361,-9.15e-4 -0.02361,-0.002 z"
     id="path4167"
     inkscape:connector-curvature="0"
     inkscape:export-xdpi="3402.6707"
     inkscape:export-ydpi="3402.6707" />
  <path
     style="fill:#c50000;fill-opacity:1;stroke:none;stroke-width:2;stroke-linejoin:miter;stroke-miterlimit:4;stroke-dasharray:none;stroke-opacity:1"
     d="m 1.5652595,6.786806 c 0.041753,-0.02853 0.1497904,-0.06888 0.2320194,-0.08665 0.061088,-0.01321 0.073241,-0.01384 0.3162646,-0.01649 l 0.2527354,-0.0028 0,0.03377 0,0.03376 -0.3398661,0 -0.3398661,0 -0.023973,0.0221 c -0.023485,0.02165 -0.024802,0.0221 -0.064787,0.02201 -0.029597,-6.1e-5 -0.038537,-0.0016 -0.032528,-0.0057 z"
     id="path4169"
     inkscape:connector-curvature="0"
     inkscape:export-xdpi="3402.6707"
     inkscape:export-ydpi="3402.6707" />
  <path
     style="fill:#c50000;fill-opacity:1;stroke:none;stroke-width:2;stroke-linejoin:miter;stroke-miterlimit:4;stroke-dasharray:none;stroke-opacity:1"
     d="m 5.4061622,5.9566154 c -0.0032,-0.2456263 -0.0091,-0.3368147 -0.02882,-0.4395169 -0.01114,-0.05817 -0.03197,-0.1302382 -0.05007,-0.1732448 -0.02052,-0.048766 -0.0121,-0.045872 0.01316,0.00452 0.05994,0.1195613 0.08368,0.2465132 0.08403,0.4494187 3.11e-4,0.1755813 0.0132,0.2467992 0.05163,0.2852269 0.03599,0.035994 0.06505,0.042164 0.18761,0.039843 0.09208,-0.00174 0.10256,-0.00297 0.12677,-0.014896 0.03377,-0.01663 0.05252,-0.041517 0.06628,-0.088 0.01595,-0.053867 0.02043,-0.323236 0.0072,-0.4322628 C 5.8099412,5.143092 5.5809942,4.7428214 5.3110042,4.6209783 5.1174292,4.5336202 4.7960329,4.4303562 4.3913097,4.3254823 4.1000142,4.2500004 3.9383245,4.1982157 3.7875545,4.1321166 c -0.032788,-0.014375 -0.058369,-0.027381 -0.056846,-0.028904 0.00152,-0.00152 0.025863,0.00733 0.05409,0.019683 0.1373763,0.060097 0.3341174,0.1127312 0.6949011,0.1859069 0.4341436,0.088055 0.5837006,0.1314781 0.7711646,0.2239052 0.427999,0.2110203 0.642817,0.5862129 0.681577,1.1904136 0.0031,0.048562 0.0057,0.1759653 0.0057,0.283119 l 0,0.1948248 -0.264394,0 -0.264395,0 -0.0031,-0.244449 z"
     id="path4171"
     inkscape:connector-curvature="0"
     inkscape:export-xdpi="3402.6707"
     inkscape:export-ydpi="3402.6707" />
  <path
     style="fill:#c50000;fill-opacity:1;stroke:none;stroke-width:2;stroke-linejoin:miter;stroke-miterlimit:4;stroke-dasharray:none;stroke-opacity:1"
     d="M 4.8194412,4.9629795 C 4.76597,4.946129 4.6120807,4.9098198 4.4695803,4.8804321 4.1728522,4.8192383 4.0162662,4.7794662 3.8386196,4.7201711 3.1601648,4.4937155 2.8247631,4.1269852 2.7476673,3.5273169 2.7321296,3.4064615 2.7300917,3.0743266 2.7448878,3.0743266 c 0.00232,0 0.00566,0.064012 0.00742,0.14225 0.00413,0.1836064 0.017382,0.2860892 0.056328,0.4355899 0.099836,0.3832354 0.348155,0.6661163 0.770519,0.8777632 0.2031998,0.1018237 0.4028506,0.1729609 0.7604172,0.270943 0.1816002,0.049763 0.3188937,0.092279 0.4218617,0.1306392 0.079742,0.029707 0.097265,0.03753 0.082866,0.036997 -0.0046,-1.69e-4 -0.01574,-0.00266 -0.02486,-0.00553 z"
     id="path4173"
     inkscape:connector-curvature="0"
     inkscape:export-xdpi="3402.6707"
     inkscape:export-ydpi="3402.6707" />
  <path
     style="fill:#c50000;fill-opacity:1;stroke:none;stroke-width:2;stroke-linejoin:miter;stroke-miterlimit:4;stroke-dasharray:none;stroke-opacity:1"
     d="M 3.5457622,3.9956345 C 3.4256867,3.9062438 3.3443424,3.7921069 3.2986131,3.6488509 3.2699459,3.5590453 3.2567232,3.4766213 3.2392365,3.2787247 3.2199272,3.0602028 3.1881241,2.9857176 3.1000628,2.9527697 c -0.074861,-0.028009 -0.250056,-0.04101 -0.2859327,-0.021218 -0.036651,0.020219 -0.054194,0.053173 -0.06118,0.1149239 -0.00206,0.018238 -0.0058,0.031896 -0.0083,0.030352 -0.0025,-0.00154 -0.00322,-0.01579 -0.0016,-0.031657 0.00651,-0.063879 0.023771,-0.2043428 0.025277,-0.2057183 0.00176,-0.00161 0.5195625,0.09229 0.5230125,0.094841 0.00117,8.63e-4 -0.00205,0.034523 -0.00716,0.074801 -0.040004,0.3156446 -0.014872,0.5677213 0.074289,0.745138 0.054218,0.1078849 0.1170747,0.1800922 0.2291086,0.2631899 0.00909,0.00674 0.01379,0.012333 0.010451,0.01243 -0.00334,9.62e-5 -0.02686,-0.015301 -0.052268,-0.034216 z"
     id="path4175"
     inkscape:connector-curvature="0"
     inkscape:export-xdpi="3402.6707"
     inkscape:export-ydpi="3402.6707" />
  <path
     style="fill:#c50000;fill-opacity:1;stroke:none;stroke-width:2;stroke-linejoin:miter;stroke-miterlimit:4;stroke-dasharray:none;stroke-opacity:1"
     d=""
     id="path4177"
     inkscape:connector-curvature="0" />
  <path
     style="fill:#c50000;fill-opacity:1;stroke:none;stroke-width:2;stroke-linejoin:miter;stroke-miterlimit:4;stroke-dasharray:none;stroke-opacity:1"
     d="m 3.6853244,4.0839467 c -0.053814,-0.028084 -0.09373,-0.053463 -0.08884,-0.056485 0.00206,-0.00127 0.016775,0.00579 0.032695,0.015706 0.01592,0.00991 0.04625,0.027215 0.0674,0.038449 0.02115,0.011234 0.036905,0.021382 0.035012,0.022552 -0.00189,0.00117 -0.022713,-0.00793 -0.046267,-0.020222 z"
     id="path4179"
     inkscape:connector-curvature="0"
     inkscape:export-xdpi="3402.6707"
     inkscape:export-ydpi="3402.6707" />
  <path
     style="fill:#c50000;fill-opacity:1;stroke:none;stroke-width:2;stroke-linejoin:miter;stroke-miterlimit:4;stroke-dasharray:none;stroke-opacity:1"
     d="m 4.8661332,4.978851 c -0.0102,-0.00339 -0.01855,-0.00762 -0.01855,-0.00939 0,-0.0051 0.0053,-0.00388 0.02782,0.00632 0.02367,0.01075 0.01874,0.012386 -0.0093,0.00307 z"
     id="path4181"
     inkscape:connector-curvature="0"
     inkscape:export-xdpi="3402.6707"
     inkscape:export-ydpi="3402.6707" />
  <path
     style="fill:#c50000;fill-opacity:1;stroke:none;stroke-width:2;stroke-linejoin:miter;stroke-miterlimit:4;stroke-dasharray:none;stroke-opacity:1"
     d="m 1.864272,8.570645 0,-0.0329 0.4474698,-0.003 0.4474697,-0.003 -3.7e-6,0.03591 -3.8e-6,0.03591 -0.447466,0 -0.447466,0 0,-0.0329 z"
     id="path4185"
     inkscape:connector-curvature="0"
     inkscape:export-xdpi="3402.6707"
     inkscape:export-ydpi="3402.6707" />
  <path
     style="fill:#c50000;fill-opacity:1;stroke:none;stroke-width:2;stroke-linejoin:miter;stroke-miterlimit:4;stroke-dasharray:none;stroke-opacity:1"
     d="m 0.08625027,12.627765 c -0.024039,-0.09015 -0.036297,-0.211867 -0.030857,-0.306383 0.00611,-0.106128 0.060635,-0.385502 0.2076168,-1.063766 0.077765,-0.358854 0.094394,-0.422263 0.1107351,-0.422263 0.010576,0 0.021323,0.0062 0.023881,0.01381 0.00256,0.0076 0.00827,-0.0053 0.012682,-0.02875 0.00442,-0.02341 0.00522,-0.04537 0.00179,-0.0488 -0.00343,-0.0034 -0.00624,0.0047 -0.00624,0.01805 0,0.02256 -0.027109,0.04436 -0.039615,0.03185 C 0.35221717,10.807483 1.1436626,7.370578 1.1904249,7.242446 1.2321389,7.128148 1.2891039,7.036403 1.3746964,6.94567 1.4668344,6.848 1.5513803,6.789596 1.5869628,6.79904 c 0.024808,0.0066 0.020501,0.01272 -0.066291,0.09443 -0.074151,0.06981 -0.066708,0.06467 0.036998,-0.02555 0.1274815,-0.110898 0.160849,-0.144138 0.098179,-0.0978 -0.017988,0.0133 -0.043017,0.02165 -0.058005,0.01934 -0.022478,-0.0034 -0.018222,-0.0078 0.028879,-0.02948 0.1129941,-0.05202 0.194201,-0.06439 0.4716249,-0.07185 l 0.2617024,-0.007 0.00446,0.03591 0.00446,0.03591 0.00177,-0.03591 0.00177,-0.03591 2.9002431,0 2.900242,0 0.0017,0.03591 c 0.0015,0.03342 0.002,0.0338 0.0063,0.0055 l 0.0046,-0.03038 0.471592,1.63e-4 c 0.516559,1.79e-4 0.547206,0.0031 0.683863,0.06641 0.165995,0.07683 0.344298,0.258519 0.418613,0.426558 0.03171,0.0717 0.153384,0.572723 0.4531008,1.865735 0.184708,0.796854 0.474404,2.08324 0.546148,2.425156 0.06906,0.32912 0.143586,0.715633 0.153568,0.796431 0.01181,0.09559 0.0033,0.221148 -0.023,0.338602 l -0.01293,0.0578 -1.0904338,3.02e-4 -1.090433,3.03e-4 -0.253015,-0.257026 c -0.261249,-0.265392 -0.68966,-0.728419 -0.689133,-0.744815 1.65e-4,-0.0051 0.118246,0.110462 0.262403,0.256833 0.144157,0.14637 0.199831,0.201061 0.12372,0.121534 -0.561295,-0.586488 -0.898007,-0.933494 -0.904086,-0.931729 -0.0039,0.0011 -0.02951,-0.0112 -0.05686,-0.02742 -0.02734,-0.01622 -0.07458,-0.04094 -0.104961,-0.05494 l -0.05524,-0.02544 -1.531056,0 -1.5310563,0 -0.096668,0.0479 c -0.078202,0.03875 -0.1186717,0.06909 -0.2118515,0.158842 -0.063351,0.06102 -0.1151832,0.107407 -0.1151832,0.103087 0,-0.0043 0.077987,-0.08947 0.1733037,-0.189226 l 0.1733037,-0.181372 1.5969276,0 1.596929,0 0.07211,0.06905 0.07211,0.06905 -0.0715,-0.07458 -0.0715,-0.07458 -1.598062,0 -1.5980617,0 -0.2034749,0.212684 c -0.1120035,0.117003 -0.302108,0.31712 -0.4225469,0.44473 l -0.2189797,0.23202 0.221854,-0.226495 c 0.1220197,-0.124573 0.2219407,-0.222484 0.2220467,-0.217582 2.242e-4,0.01035 -0.5141797,0.584988 -0.6841986,0.764312 -0.063465,0.06694 -0.2051123,0.212443 -0.3147715,0.323342 -0.170525,0.172455 -0.2041819,0.201636 -0.2325582,0.201636 -0.030421,0 -0.00931,-0.0241 0.2540045,-0.290024 l 0.2871824,-0.290024 -0.2929674,0.290128 -0.2929675,0.290129 -1.0518246,-3.19e-4 -1.05182473,-3.2e-4 -0.010991,-0.04122 0,1e-6 z M 10.855908,12.586545 c -2.61e-4,-0.01776 -0.0021,-0.01668 -0.0092,0.0055 -0.0121,0.03778 -0.0121,0.06682 0,0.03867 0.0052,-0.01215 0.0093,-0.03204 0.0092,-0.04419 z m -10.75158873,-0.0855 c -0.00264,-0.01374 -0.00491,-0.0051 -0.00503,0.01921 -1.226e-4,0.02431 0.00204,0.03555 0.00481,0.02499 0.00277,-0.01056 0.00287,-0.03045 2.23e-4,-0.04419 z m 10.76108273,0.0054 c -0.0028,-0.01063 -0.0051,-0.0019 -0.0051,0.01933 0,0.02127 0.0023,0.02997 0.0051,0.01934 0.0028,-0.01063 0.0028,-0.02804 0,-0.03867 z M 0.11535087,12.390436 c -0.00263,-0.01367 -0.00479,-0.0025 -0.00479,0.02486 0,0.02735 0.00215,0.03853 0.00479,0.02486 0.00263,-0.01367 0.00263,-0.03605 0,-0.04972 z M 10.865443,12.374076 c -0.0028,-0.01075 -0.0053,-0.0046 -0.0055,0.0136 -2.25e-4,0.01823 0.0021,0.02703 0.0051,0.01955 0.003,-0.0075 0.0032,-0.0224 4.1e-4,-0.03315 l 0,0 z M 0.12625867,12.296733 c -0.0028,-0.01075 -0.00528,-0.0046 -0.0055,0.0136 -2.251e-4,0.01823 0.00207,0.02703 0.00509,0.01955 0.00303,-0.0075 0.00321,-0.0224 4.094e-4,-0.03315 z m 10.72813533,0 c -0.0028,-0.01075 -0.0053,-0.0046 -0.0055,0.0136 -2.25e-4,0.01823 0.0021,0.02703 0.0051,0.01955 0.003,-0.0075 0.0032,-0.0224 4.1e-4,-0.03315 l -1e-6,0 z m -0.01105,-0.06629 c -0.0028,-0.01075 -0.0053,-0.0046 -0.0055,0.0136 -2.25e-4,0.01823 0.0021,0.02703 0.0051,0.01955 0.003,-0.0075 0.0032,-0.0224 4.1e-4,-0.03315 l 0,0 z M 0.13730717,12.219393 c -0.0028,-0.01075 -0.00528,-0.0046 -0.0055,0.0136 -2.252e-4,0.01823 0.00207,0.02703 0.00509,0.01955 0.00303,-0.0075 0.00321,-0.0224 4.094e-4,-0.03315 z M 10.831958,12.158413 c -0.0031,-0.0076 -0.0056,-0.0014 -0.0056,0.01381 0,0.01519 0.0025,0.02141 0.0056,0.01381 0.0031,-0.0076 0.0031,-0.02003 0,-0.02762 z M 0.14835577,12.142054 c -0.0028,-0.01075 -0.00528,-0.0046 -0.0055,0.0136 -2.251e-4,0.01823 0.00207,0.02703 0.00509,0.01954 0.00303,-0.0075 0.00321,-0.0224 4.093e-4,-0.03314 z m 10.67289223,-0.0442 c -0.0028,-0.01075 -0.0053,-0.0046 -0.0055,0.0136 -2.26e-4,0.01823 0.0021,0.02703 0.0051,0.01955 0.003,-0.0075 0.0032,-0.0224 4.1e-4,-0.03315 l -1e-6,0 z M 0.15906497,12.070028 c -0.00306,-0.0076 -0.00557,-0.0014 -0.00557,0.01381 0,0.01519 0.00251,0.02141 0.00557,0.01381 0.00306,-0.0076 0.00306,-0.02003 0,-0.02762 z M 10.809861,12.036878 c -0.0031,-0.0076 -0.0056,-0.0014 -0.0056,0.01381 0,0.01519 0.0025,0.02141 0.0056,0.01381 0.0031,-0.0076 0.0031,-0.02003 0,-0.02762 z m -7.7744434,-0.2042 c 0,-0.008 -0.014163,0.0055 -0.1217314,0.115812 l -0.1158123,0.118772 0.1187719,-0.115813 c 0.065325,-0.0637 0.1187718,-0.117144 0.1187718,-0.118771 z m -2.86530403,0.171055 c -0.00307,-0.0076 -0.00557,-0.0014 -0.00557,0.01381 0,0.01519 0.00251,0.02141 0.00557,0.01381 0.00306,-0.0076 0.00306,-0.02003 0,-0.02762 z M 10.799151,11.976323 c -0.0028,-0.01075 -0.0053,-0.0046 -0.0055,0.0136 -2.26e-4,0.01823 0.0021,0.02703 0.0051,0.01954 0.003,-0.0075 0.0032,-0.0224 4.1e-4,-0.03315 l -10e-7,0 z M 0.18116207,11.937445 c -0.00306,-0.0076 -0.00557,-0.0014 -0.00557,0.01381 0,0.01519 0.00251,0.02141 0.00557,0.01381 0.00307,-0.0076 0.00307,-0.02003 0,-0.02762 z m 10.60660093,-0.0221 c -0.0031,-0.0076 -0.0056,-0.0014 -0.0056,0.01381 0,0.01519 0.0025,0.02141 0.0056,0.01381 0.0031,-0.0076 0.0031,-0.02003 0,-0.02762 z M 0.19221057,11.882203 c -0.00306,-0.0076 -0.00557,-0.0014 -0.00557,0.01381 0,0.01519 0.00251,0.02141 0.00557,0.01381 0.00306,-0.0076 0.00306,-0.02003 0,-0.02762 z m 10.58450443,-0.0221 c -0.0031,-0.0076 -0.0056,-0.0014 -0.0056,0.01381 0,0.01519 0.0025,0.02141 0.0056,0.01381 0.0031,-0.0076 0.0031,-0.02003 0,-0.02762 z M 0.20325917,11.815911 c -0.00307,-0.0076 -0.00557,-0.0014 -0.00557,0.01381 0,0.01519 0.00251,0.02141 0.00557,0.01381 0.00306,-0.0076 0.00306,-0.02003 0,-0.02762 z M 10.765666,11.804861 c -0.0031,-0.0076 -0.0056,-0.0014 -0.0056,0.01381 0,0.01519 0.0025,0.02141 0.0056,0.01381 0.0031,-0.0076 0.0031,-0.02003 0,-0.02762 z M 0.21430767,11.760669 c -0.00306,-0.0076 -0.00557,-0.0014 -0.00557,0.01381 0,0.01519 0.00251,0.02141 0.00557,0.01381 0.00306,-0.0076 0.00306,-0.02003 0,-0.02762 z M 10.754618,11.749619 c -0.0031,-0.0076 -0.0056,-0.0014 -0.0056,0.01381 0,0.01519 0.0025,0.02141 0.0056,0.01381 0.0031,-0.0076 0.0031,-0.02003 0,-0.02762 z M 0.22535627,11.694377 c -0.00306,-0.0076 -0.00557,-0.0014 -0.00557,0.01381 0,0.01519 0.00251,0.02141 0.00557,0.01381 0.00306,-0.0076 0.00306,-0.02003 0,-0.02762 z m 10.51821273,0 c -0.0031,-0.0076 -0.0056,-0.0014 -0.0056,0.01381 0,0.01519 0.0025,0.02141 0.0056,0.01381 0.0031,-0.0076 0.0031,-0.02003 0,-0.02762 z M 0.23640477,11.639135 c -0.00306,-0.0076 -0.00557,-0.0014 -0.00557,0.01381 0,0.01519 0.00251,0.02141 0.00557,0.01381 0.00307,-0.0076 0.00307,-0.02003 0,-0.02762 z m 10.48896123,-0.0309 -0.01183,-0.0271 0.0057,0.02762 c 0.0031,0.01519 0.0064,0.03757 0.0073,0.04972 0.0016,0.02153 0.0018,0.02151 0.0061,-5.18e-4 0.0025,-0.01244 -8.32e-4,-0.03481 -0.0073,-0.04972 l 0,0 z M 0.24745337,11.583892 c -0.00307,-0.0076 -0.00557,-0.0014 -0.00557,0.01381 0,0.01519 0.00251,0.02141 0.00557,0.01381 0.00307,-0.0076 0.00307,-0.02003 0,-0.02762 z m 0.011049,-0.05524 c -0.00307,-0.0076 -0.00557,-0.0014 -0.00557,0.01381 0,0.01519 0.00251,0.02141 0.00557,0.01381 0.00306,-0.0076 0.00306,-0.02003 0,-0.02762 z m 0.011048,-0.05524 c -0.00306,-0.0076 -0.00557,-0.0014 -0.00557,0.01381 0,0.01519 0.00251,0.02141 0.00557,0.01381 0.00306,-0.0076 0.00306,-0.02003 0,-0.02762 z m 0.011049,-0.05524 c -0.00306,-0.0076 -0.00557,-0.0014 -0.00557,0.01381 0,0.01519 0.00251,0.02141 0.00557,0.01381 0.00306,-0.0076 0.00306,-0.02003 0,-0.02762 z m 0.011049,-0.05524 c -0.00307,-0.0076 -0.00557,-0.0014 -0.00557,0.01381 0,0.01519 0.00251,0.02141 0.00557,0.01381 0.00306,-0.0076 0.00306,-0.02003 0,-0.02762 z m 0.011049,-0.05524 c -0.00306,-0.0076 -0.00557,-0.0014 -0.00557,0.01381 0,0.01519 0.00251,0.02141 0.00557,0.01381 0.00307,-0.0076 0.00307,-0.02003 0,-0.02762 z m 0.011049,-0.05524 c -0.00306,-0.0076 -0.00557,-0.0014 -0.00557,0.01381 0,0.01519 0.00251,0.02141 0.00557,0.01381 0.00306,-0.0076 0.00306,-0.02003 0,-0.02762 z m 0.011049,-0.05524 c -0.00307,-0.0076 -0.00557,-0.0014 -0.00557,0.01381 0,0.01519 0.00251,0.02141 0.00557,0.01381 0.00306,-0.0076 0.00306,-0.02003 0,-0.02762 z m 0.011048,-0.05524 c -0.00306,-0.0076 -0.00557,-0.0014 -0.00557,0.01381 0,0.01519 0.00251,0.02141 0.00557,0.01381 0.00306,-0.0076 0.00306,-0.02002 0,-0.02762 z m 0.011049,-0.05524 c -0.00307,-0.0076 -0.00557,-0.0014 -0.00557,0.01381 0,0.01519 0.00251,0.02141 0.00557,0.01381 0.00306,-0.0076 0.00306,-0.02003 0,-0.02762 z m 0.023626,-0.09115 c 0,-0.0175 -0.00184,-0.01635 -0.00885,0.0055 -0.00487,0.01519 -0.00885,0.03757 -0.00885,0.04972 0,0.0175 0.00184,0.01635 0.00885,-0.0055 0.00487,-0.01519 0.00885,-0.03757 0.00885,-0.04972 z m 0.00952,-0.06353 c -0.00307,-0.0076 -0.00557,-0.0014 -0.00557,0.01381 0,0.01519 0.00251,0.02141 0.00557,0.01381 0.00306,-0.0076 0.00306,-0.02003 0,-0.02762 z m 0.011048,-0.05524 c -0.00306,-0.0076 -0.00557,-0.0014 -0.00557,0.01381 0,0.01519 0.00251,0.02141 0.00557,0.01381 0.00306,-0.0076 0.00306,-0.02003 0,-0.02762 z m 0.045721,-0.190614 c 0,-0.0175 -0.00184,-0.01635 -0.00885,0.0055 -0.00487,0.01519 -0.00885,0.03756 -0.00885,0.04972 0,0.0175 0.00184,0.01635 0.00885,-0.0055 0.00487,-0.01519 0.00885,-0.03756 0.00885,-0.04972 z m 0.00952,-0.06353 c -0.00306,-0.0076 -0.00557,-0.0014 -0.00557,0.01381 0,0.01519 0.00251,0.02141 0.00557,0.01381 0.00306,-0.0076 0.00306,-0.02003 0,-0.02762 z m 0.023626,-0.09115 c 0,-0.0175 -0.00184,-0.01635 -0.00885,0.0055 -0.00487,0.01519 -0.00885,0.03757 -0.00885,0.04972 0,0.0175 0.00184,0.01635 0.00885,-0.0055 0.00487,-0.01519 0.00885,-0.03757 0.00885,-0.04972 z m 0.00952,-0.06353 c -0.00306,-0.0076 -0.00557,-0.0014 -0.00557,0.01381 0,0.01519 0.00251,0.02141 0.00557,0.01381 0.00307,-0.0076 0.00307,-0.02002 0,-0.02762 z m 0.011279,-0.0435 c -0.00353,-0.0088 -0.00615,-0.0062 -0.00668,0.0067 -4.797e-4,0.01165 0.00213,0.01817 0.0058,0.0145 0.00367,-0.0037 0.00406,-0.0132 8.723e-4,-0.02118 z m 0.010818,-0.05593 c -0.00307,-0.0076 -0.00557,-0.0014 -0.00557,0.01381 0,0.01519 0.00251,0.02141 0.00557,0.01381 0.00306,-0.0076 0.00306,-0.02002 0,-0.02762 z m 0.011279,-0.0435 c -0.00353,-0.0088 -0.00614,-0.0062 -0.00668,0.0067 -4.797e-4,0.01165 0.00213,0.01817 0.0058,0.0145 0.00367,-0.0037 0.00406,-0.0132 8.723e-4,-0.02118 z m 0.010818,-0.05593 c -0.00307,-0.0076 -0.00557,-0.0014 -0.00557,0.01381 0,0.01519 0.00251,0.02141 0.00557,0.01381 0.00306,-0.0076 0.00306,-0.02003 0,-0.02762 z m 0.023626,-0.09115 c 0,-0.0175 -0.00184,-0.01635 -0.00885,0.0055 -0.00487,0.01519 -0.00885,0.03757 -0.00885,0.04972 0,0.0175 0.00184,0.01635 0.00885,-0.0055 0.00487,-0.01519 0.00885,-0.03757 0.00885,-0.04972 z m 0.022097,-0.09944 c 0,-0.0175 -0.00184,-0.01635 -0.00885,0.0055 -0.00487,0.01519 -0.00885,0.03757 -0.00885,0.04972 0,0.0175 0.00184,0.01635 0.00885,-0.0055 0.00487,-0.01519 0.00885,-0.03757 0.00885,-0.04972 z m 0.00975,-0.05179 c -0.00353,-0.0088 -0.00615,-0.0062 -0.00668,0.0067 -4.798e-4,0.01165 0.00213,0.01817 0.0058,0.0145 0.00367,-0.0037 0.00406,-0.0132 8.723e-4,-0.02118 z m 2.64450233,-0.0035 c 0.056471,-0.05042 0.059365,-0.0721 0.063763,-0.477725 l 0.0041,-0.378288 0.4437175,-0.0029 0.4437175,-0.0029 0,-0.314884 0,-0.314883 -0.4438206,-0.0029 -0.4438205,-0.0029 -0.00386,-0.378288 c -0.00525,-0.514306 0.00298,-0.497838 -0.2516512,-0.503357 -0.1948619,-0.0042 -0.2334008,0.0064 -0.2631048,0.07219 -0.016381,0.03631 -0.019346,0.0925 -0.022466,0.425767 l -0.00359,0.383936 -0.446869,0 -0.4468692,0 0.00293,0.317646 0.00293,0.317646 0.4439383,0.0029 0.4439384,0.0029 0.00353,0.383812 c 0.00479,0.520806 -0.00602,0.501712 0.2813777,0.497027 0.1494957,-0.0024 0.170007,-0.0051 0.1921123,-0.02483 z m 4.8625895,0.01259 c 0.114932,-0.02705 0.208868,-0.100992 0.253698,-0.199693 0.01397,-0.03076 0.02044,-0.07104 0.02054,-0.12778 1.72e-4,-0.105899 -0.03097,-0.17639 -0.115071,-0.260494 -0.204189,-0.204189 -0.489921,-0.166349 -0.605275,0.08016 -0.02983,0.06373 -0.03247,0.07861 -0.02864,0.161183 0.0091,0.19622 0.106371,0.310343 0.301871,0.354144 0.04388,0.0098 0.111704,0.0069 0.172882,-0.0075 z M 0.60253537,9.934897 c 0,-0.0175 -0.00184,-0.01635 -0.00885,0.0055 -0.00487,0.01519 -0.00885,0.03756 -0.00885,0.04972 0,0.0175 0.00184,0.01635 0.00885,-0.0055 0.00487,-0.01519 0.00885,-0.03756 0.00885,-0.04972 z m 0.022097,-0.09944 c 0,-0.0175 -0.00184,-0.01635 -0.00885,0.0055 -0.00487,0.01519 -0.00885,0.03756 -0.00885,0.04972 0,0.0175 0.00184,0.01635 0.00885,-0.0055 0.00487,-0.01519 0.00885,-0.03756 0.00885,-0.04972 z m 0.00975,-0.05179 c -0.00353,-0.0088 -0.00615,-0.0062 -0.00668,0.0067 -4.797e-4,0.01165 0.00213,0.01817 0.0058,0.0145 0.00367,-0.0037 0.00406,-0.0132 8.723e-4,-0.02118 z m 0.010818,-0.05593 c -0.00306,-0.0076 -0.00557,-0.0014 -0.00557,0.01381 0,0.01519 0.00251,0.02141 0.00557,0.01381 0.00307,-0.0076 0.00307,-0.02003 0,-0.02762 z m 0.011279,-0.0435 c -0.00353,-0.0088 -0.00615,-0.0062 -0.00668,0.0067 -4.798e-4,0.01165 0.00213,0.01817 0.0058,0.0145 0.00367,-0.0037 0.00406,-0.0132 8.723e-4,-0.02118 z m 0.023396,-0.09184 c 0,-0.0175 -0.00184,-0.01635 -0.00885,0.0055 -0.00487,0.01519 -0.00885,0.03757 -0.00885,0.04972 0,0.0175 0.00184,0.01635 0.00885,-0.0055 0.00487,-0.01519 0.00885,-0.03757 0.00885,-0.04972 z m 5.18900483,-0.0075 c 0.07767,-0.02936 0.08836,-0.05556 0.09253,-0.226935 0.0045,-0.183136 -0.0093,-0.232736 -0.07323,-0.264543 -0.03731,-0.01856 -0.07388,-0.02034 -0.416553,-0.02034 -0.341644,0 -0.379324,0.0018 -0.416229,0.02019 -0.06343,0.03156 -0.07543,0.06953 -0.07543,0.238715 0,0.209876 0.02,0.245193 0.15027,0.265294 0.03585,0.0055 0.206874,0.0087 0.38006,0.0071 0.247003,-0.0023 0.324305,-0.0065 0.358589,-0.01948 z M 0.70197227,9.492957 c 0,-0.0175 -0.00184,-0.01635 -0.00885,0.0055 -0.00487,0.01519 -0.00885,0.03757 -0.00885,0.04972 0,0.0175 0.00184,0.01635 0.00885,-0.0055 0.00487,-0.01519 0.00885,-0.03757 0.00885,-0.04972 z m 0.00975,-0.05179 c -0.00353,-0.0088 -0.00615,-0.0062 -0.00668,0.0067 -4.797e-4,0.01165 0.00213,0.01817 0.0058,0.0145 0.00367,-0.0037 0.00406,-0.0132 8.723e-4,-0.02118 z m 0.023395,-0.09184 c 0,-0.0175 -0.00184,-0.01635 -0.00885,0.0055 -0.00487,0.01519 -0.00885,0.03756 -0.00885,0.04972 0,0.0175 0.00184,0.01635 0.00885,-0.0055 0.00487,-0.01519 0.00885,-0.03756 0.00885,-0.04972 z m 0.022097,-0.09944 c 0,-0.0175 -0.00184,-0.01635 -0.00885,0.0055 -0.00487,0.01519 -0.00885,0.03756 -0.00885,0.04972 0,0.0175 0.00184,0.01635 0.00885,-0.0055 0.00487,-0.01519 0.00885,-0.03756 0.00885,-0.04972 z M 7.3656592,9.208927 c 0.07039,-0.03408 0.138525,-0.108344 0.167968,-0.183091 0.03535,-0.08974 0.0355,-0.257285 3.05e-4,-0.346571 -0.03471,-0.08807 -0.09669,-0.154105 -0.179517,-0.191276 -0.05997,-0.02691 -0.07848,-0.03013 -0.147779,-0.02568 -0.05891,0.0038 -0.09362,0.01292 -0.1354,0.03566 -0.07619,0.04147 -0.159036,0.126366 -0.203642,0.208683 -0.03252,0.06001 -0.03694,0.07805 -0.03697,0.151017 -3.4e-5,0.06849 0.0053,0.09382 0.03098,0.146035 0.05472,0.111426 0.162781,0.199596 0.281055,0.229315 0.06038,0.01517 0.165303,0.0038 0.222991,-0.02409 l 1e-6,0 z m 1.470999,0.01789 c 0.12157,-0.03555 0.226521,-0.127297 0.297597,-0.260158 0.02929,-0.05474 0.03746,-0.08282 0.03691,-0.126746 -0.0014,-0.114554 -0.116848,-0.260734 -0.268864,-0.340542 -0.07012,-0.03681 -0.09531,-0.04408 -0.165695,-0.0478 -0.0783,-0.0041 -0.08642,-0.0023 -0.143181,0.03236 -0.180112,0.110018 -0.244606,0.409441 -0.127983,0.594182 0.03858,0.06112 0.1242,0.131399 0.181628,0.14909 0.06764,0.02083 0.117365,0.02074 0.189586,-3.85e-4 l 0,1e-6 z M 0.76696437,9.198097 c -0.00353,-0.0088 -0.00615,-0.0062 -0.00668,0.0067 -4.797e-4,0.01165 0.00213,0.01817 0.0058,0.0145 0.00367,-0.0037 0.00406,-0.0132 8.723e-4,-0.02118 z m 0.023395,-0.09184 c 0,-0.0175 -0.00184,-0.01635 -0.00885,0.0055 -0.00487,0.01519 -0.00885,0.03757 -0.00885,0.04972 0,0.0175 0.00184,0.01635 0.00885,-0.0055 0.00487,-0.01519 0.00885,-0.03757 0.00885,-0.04972 z m 0.00975,-0.05179 c -0.00353,-0.0088 -0.00614,-0.0062 -0.00668,0.0067 -4.797e-4,0.01165 0.00213,0.01817 0.0058,0.0145 0.00367,-0.0037 0.00406,-0.0132 8.722e-4,-0.02118 z m 0.023396,-0.09184 c 0,-0.0175 -0.00184,-0.01635 -0.00885,0.0055 -0.00487,0.01519 -0.00885,0.03756 -0.00885,0.04972 0,0.0175 0.00184,0.01635 0.00885,-0.0055 0.00487,-0.01519 0.00885,-0.03756 0.00885,-0.04972 z m 0.00975,-0.05179 c -0.00353,-0.0088 -0.00615,-0.0062 -0.00668,0.0067 -4.798e-4,0.01165 0.00213,0.01817 0.0058,0.0145 0.00367,-0.0037 0.00406,-0.0132 8.723e-4,-0.02118 z m 0.035446,-0.14156 c -4.261e-4,-0.0091 -0.00769,0.0083 -0.016146,0.03867 -0.00845,0.03038 -0.015023,0.0627 -0.014597,0.07182 4.262e-4,0.0091 0.00769,-0.0083 0.016147,-0.03867 0.00845,-0.03038 0.015023,-0.0627 0.014597,-0.07182 z m 0.00875,-0.04626 c -0.00353,-0.0088 -0.00615,-0.0062 -0.00668,0.0067 -4.797e-4,0.01165 0.00213,0.01817 0.0058,0.0145 0.00367,-0.0037 0.00406,-0.0132 8.722e-4,-0.02118 z m 0.023396,-0.09184 c 0,-0.0175 -0.00184,-0.01635 -0.00885,0.0055 -0.00487,0.01519 -0.00885,0.03757 -0.00885,0.04972 0,0.0175 0.00184,0.01635 0.00885,-0.0055 0.00487,-0.01519 0.00885,-0.03757 0.00885,-0.04972 z m 0.00975,-0.05179 c -0.00353,-0.0088 -0.00615,-0.0062 -0.00668,0.0067 -4.798e-4,0.01165 0.00213,0.01817 0.0058,0.0145 0.00367,-0.0037 0.00406,-0.0132 8.723e-4,-0.02118 z m 0.011049,-0.0442 c -0.00353,-0.0088 -0.00614,-0.0062 -0.00668,0.0067 -4.797e-4,0.01165 0.00213,0.01817 0.0058,0.0145 0.00367,-0.0037 0.00406,-0.0132 8.723e-4,-0.02118 z m 0.023396,-0.09184 c 0,-0.0175 -0.00184,-0.01635 -0.00885,0.0055 -0.00487,0.01519 -0.00885,0.03757 -0.00885,0.04972 0,0.0175 0.00184,0.01635 0.00885,-0.0055 0.00487,-0.01519 0.00885,-0.03757 0.00885,-0.04972 z m 0.00975,-0.05179 c -0.00353,-0.0088 -0.00615,-0.0062 -0.00668,0.0067 -4.797e-4,0.01165 0.00213,0.01817 0.0058,0.0145 0.00367,-0.0037 0.00406,-0.0132 8.722e-4,-0.02118 z m 0.011049,-0.04419 c -0.00353,-0.0088 -0.00615,-0.0062 -0.00668,0.0067 -4.797e-4,0.01165 0.00213,0.01817 0.0058,0.0145 0.00367,-0.0037 0.00406,-0.0132 8.723e-4,-0.02118 z M 8.1564202,8.317797 c 0.03038,-0.01355 0.07859,-0.04756 0.107114,-0.07558 0.143423,-0.140876 0.133073,-0.343963 -0.02522,-0.494952 -0.09436,-0.09001 -0.168577,-0.121505 -0.286289,-0.121505 -0.08345,0 -0.100507,0.0037 -0.153082,0.03277 -0.07603,0.04211 -0.138307,0.113311 -0.168028,0.192097 -0.01899,0.05034 -0.02263,0.07946 -0.01884,0.150781 0.0086,0.162386 0.09305,0.28007 0.23392,0.326065 0.09121,0.02978 0.231766,0.0254 0.310432,-0.0097 z M 0.97688987,8.303177 c -0.00353,-0.0088 -0.00614,-0.0062 -0.00668,0.0067 -4.797e-4,0.01165 0.00213,0.01817 0.0058,0.0145 0.00367,-0.0037 0.00406,-0.0132 8.723e-4,-0.02118 z m 0.011049,-0.04419 c -0.00353,-0.0088 -0.00615,-0.0062 -0.00668,0.0067 -4.798e-4,0.01165 0.00213,0.01817 0.0058,0.0145 0.00367,-0.0037 0.00406,-0.0132 8.723e-4,-0.02118 z m 0.035446,-0.14156 c -4.261e-4,-0.0091 -0.00769,0.0083 -0.016147,0.03867 -0.00845,0.03038 -0.015023,0.0627 -0.014597,0.07182 4.262e-4,0.0091 0.00769,-0.0083 0.016147,-0.03867 0.00845,-0.03038 0.015023,-0.0627 0.014597,-0.07182 z m 0.00875,-0.04626 c -0.00353,-0.0088 -0.00615,-0.0062 -0.00668,0.0067 -4.797e-4,0.01165 0.00213,0.01817 0.0058,0.0145 0.00367,-0.0037 0.00406,-0.0132 8.722e-4,-0.02118 z m 0.040369,-0.141816 c 0.00629,-0.03664 0.0059,-0.03636 -0.00818,0.006 -0.00813,0.02444 -0.017742,0.06173 -0.021368,0.08286 -0.00628,0.03664 -0.0059,0.03636 0.00818,-0.006 0.00813,-0.02444 0.017742,-0.06173 0.021368,-0.08286 z m 0.014869,-0.06813 c -0.00353,-0.0088 -0.00615,-0.0062 -0.00668,0.0067 -4.798e-4,0.01165 0.00213,0.01817 0.0058,0.0145 0.00367,-0.0037 0.00406,-0.0132 8.723e-4,-0.02118 z m 0.011049,-0.04419 c -0.00353,-0.0088 -0.00614,-0.0062 -0.00668,0.0067 -4.797e-4,0.01165 0.00213,0.01817 0.0058,0.0145 0.00367,-0.0037 0.00406,-0.0132 8.723e-4,-0.02118 z m 0.011049,-0.04419 c -0.00353,-0.0088 -0.00615,-0.0062 -0.00668,0.0067 -4.798e-4,0.01165 0.00213,0.01817 0.0058,0.0145 0.00367,-0.0037 0.00406,-0.0132 8.723e-4,-0.02118 z m 0.024045,-0.07527 c 0,-0.01045 -0.00351,-0.0084 -0.0095,0.0055 -0.00522,0.01215 -0.0095,0.02956 -0.0095,0.03867 0,0.01045 0.00351,0.0084 0.0095,-0.0055 0.00522,-0.01215 0.0095,-0.02955 0.0095,-0.03867 z m 0.0091,-0.04627 c -0.00353,-0.0088 -0.00615,-0.0062 -0.00668,0.0067 -4.795e-4,0.01165 0.00213,0.01817 0.0058,0.0145 0.00367,-0.0037 0.00406,-0.0132 8.718e-4,-0.02118 l 4e-7,0 z m 0.024045,-0.07527 c 0,-0.01045 -0.00351,-0.0084 -0.0095,0.0055 -0.00522,0.01215 -0.0095,0.02956 -0.0095,0.03867 0,0.01045 0.00351,0.0084 0.0095,-0.0055 0.00522,-0.01215 0.0095,-0.02956 0.0095,-0.03867 z m 0.033146,-0.110486 c 0,-0.01045 -0.00351,-0.0084 -0.0095,0.0055 -0.00522,0.01215 -0.0095,0.02955 -0.0095,0.03867 0,0.01045 0.00351,0.0084 0.0095,-0.0055 0.00522,-0.01215 0.0095,-0.02956 0.0095,-0.03867 z M 9.7432332,7.314456 c -0.01302,-0.0224 -0.01617,-0.01523 -0.0055,0.01256 0.0038,0.0099 0.0092,0.01563 0.01206,0.01278 0.0028,-0.0028 -9.9e-5,-0.01425 -0.0066,-0.02534 z m -8.475921,-0.04226 c 0,-0.0061 -0.00482,-0.0036 -0.01071,0.0055 -0.00589,0.0091 -0.01071,0.02154 -0.01071,0.02762 0,0.0061 0.00482,0.0036 0.01071,-0.0055 0.00589,-0.0091 0.01071,-0.02154 0.01071,-0.02762 z m 0.022097,-0.05524 c 0,-0.0061 -0.00482,-0.0036 -0.01071,0.0055 -0.00589,0.0091 -0.01071,0.02154 -0.01071,0.02762 0,0.0061 0.00482,0.0036 0.01071,-0.0055 0.00589,-0.0091 0.01071,-0.02154 0.01071,-0.02762 z m 0.037865,-0.0801 c 0.016025,-0.0319 0.026651,-0.058 0.023612,-0.058 -0.00623,0 -0.061139,0.105514 -0.061139,0.117484 0,0.01251 0.00671,0.0019 0.037527,-0.05948 z M 1.4057572,7.01256 c 0.010999,-0.01215 0.017512,-0.0221 0.014473,-0.0221 -0.00304,0 -0.014523,0.0099 -0.025522,0.0221 -0.010999,0.01215 -0.017512,0.0221 -0.014473,0.0221 0.00304,0 0.014523,-0.0099 0.025522,-0.0221 z m 8.093058,-0.0807 c 0,-0.0018 -0.01864,-0.02049 -0.04143,-0.04143 l -0.04143,-0.03808 0.03807,0.04143 c 0.03544,0.03856 0.04479,0.04651 0.04479,0.03807 z M 9.3883302,6.809509 c 0,-0.0023 -0.0087,-0.011 -0.01933,-0.01933 -0.01752,-0.01374 -0.01792,-0.01335 -0.0042,0.0042 0.01443,0.0184 0.02351,0.02426 0.02351,0.01516 z"
     id="path4187"
     inkscape:connector-curvature="0"
     inkscape:export-xdpi="3402.6707"
     inkscape:export-ydpi="3402.6707" />
  <path
     style="fill:#c50000;fill-opacity:1;stroke:none;stroke-width:2;stroke-linejoin:miter;stroke-miterlimit:4;stroke-dasharray:none;stroke-opacity:1"
     d="m 2.3089759,9.15874 -0.4447039,-0.003 0,-0.03302 0,-0.03302 0.447466,0 0.447466,0 0,0.03867 c 0,0.02127 -0.00124,0.03749 -0.00276,0.03604 -0.00152,-0.0014 -0.2028789,-0.004 -0.447466,-0.0056 z"
     id="path4189"
     inkscape:connector-curvature="0"
     inkscape:export-xdpi="3402.6707"
     inkscape:export-ydpi="3402.6707" />
  <path
     style="fill:#c50000;fill-opacity:1;stroke:none;stroke-width:2;stroke-linejoin:miter;stroke-miterlimit:4;stroke-dasharray:none;stroke-opacity:1"
     d="m 3.2831786,9.387994 c 0,-0.130649 0.0016,-0.184097 0.00355,-0.118772 0.00195,0.06533 0.00195,0.172219 0,0.237544 -0.00195,0.06532 -0.00355,0.01188 -0.00355,-0.118772 z"
     id="path4191"
     inkscape:connector-curvature="0"
     inkscape:export-xdpi="3402.6707"
     inkscape:export-ydpi="3402.6707" />
  <path
     style="fill:#c50000;fill-opacity:1;stroke:none;stroke-width:2;stroke-linejoin:miter;stroke-miterlimit:4;stroke-dasharray:none;stroke-opacity:1"
     d="m 3.5077428,9.15875 c 0.1230532,-0.0018 0.3244129,-0.0018 0.447466,0 0.1230532,0.0018 0.022373,0.0032 -0.223733,0.0032 -0.2461063,0 -0.3467861,-0.0015 -0.223733,-0.0032 z"
     id="path4193"
     inkscape:connector-curvature="0"
     inkscape:export-xdpi="3402.6707"
     inkscape:export-ydpi="3402.6707" />
  <path
     style="fill:#c50000;fill-opacity:1;stroke:none;stroke-width:2;stroke-linejoin:miter;stroke-miterlimit:4;stroke-dasharray:none;stroke-opacity:1"
     d="m 3.2232428,9.550565 0,-0.460882 0.4529903,0 0.4529903,0 0,-0.243068 0,-0.243068 -0.4529903,0 -0.4529903,0 0,-0.460882 c 0,-0.407156 0.00191,-0.458973 0.016372,-0.44451 0.030585,0.03058 0.038871,0.134415 0.038871,0.487056 l 0,0.352045 0.447466,0 0.447466,0 0,0.309359 0,0.309359 -0.447466,0 -0.447466,0 0,0.352046 c 0,0.35264 -0.00829,0.456471 -0.038871,0.487056 -0.014463,0.01446 -0.016372,-0.03735 -0.016372,-0.444511 z"
     id="path4195"
     inkscape:connector-curvature="0"
     inkscape:export-xdpi="3402.6707"
     inkscape:export-ydpi="3402.6707" />
  <path
     style="fill:#c50000;fill-opacity:1;stroke:none;stroke-width:2;stroke-linejoin:miter;stroke-miterlimit:4;stroke-dasharray:none;stroke-opacity:1"
     d="m 2.7572197,9.858944 c -0.00482,-0.06963 -0.00779,-0.692383 -0.0033,-0.692383 0.00238,0 0.00492,-0.0091 0.00571,-0.02051 7.891e-4,-0.01128 0.00176,0.152198 0.00216,0.363282 3.974e-4,0.211084 6.41e-5,0.383789 -7.407e-4,0.383789 -8.048e-4,0 -0.00253,-0.01538 -0.00383,-0.03418 z"
     id="path4197"
     inkscape:connector-curvature="0"
     inkscape:export-xdpi="3402.6707"
     inkscape:export-ydpi="3402.6707" />
  <path
     style="fill:#c50000;fill-opacity:1;stroke:none;stroke-width:2;stroke-linejoin:miter;stroke-miterlimit:4;stroke-dasharray:none;stroke-opacity:1"
     d="m 2.7550424,8.530136 c -0.00472,-0.003 -0.00508,-0.05214 -0.00249,-0.340761 0.00166,-0.185497 0.0043,-0.351329 0.00585,-0.368517 0.00155,-0.01719 0.00311,0.136182 0.00347,0.34082 3.558e-4,0.204639 2.075e-4,0.372044 -3.296e-4,0.372011 -5.371e-4,-3.3e-5 -0.00346,-0.0016 -0.0065,-0.0036 z"
     id="path4199"
     inkscape:connector-curvature="0"
     inkscape:export-xdpi="3402.6707"
     inkscape:export-ydpi="3402.6707" />
  <path
     style="fill:#c50000;fill-opacity:1;stroke:none;stroke-width:2;stroke-linejoin:miter;stroke-miterlimit:4;stroke-dasharray:none;stroke-opacity:1"
     d="m 3.2641957,9.936093 c 0.00976,-0.06196 0.011344,-0.111449 0.013817,-0.431641 l 0.00269,-0.347656 -5.628e-4,0.359375 c -5.033e-4,0.32144 -0.00127,0.363273 -0.00728,0.396304 -0.00676,0.03715 -0.013821,0.05641 -0.00866,0.02362 z"
     id="path4201"
     inkscape:connector-curvature="0"
     inkscape:export-xdpi="3402.6707"
     inkscape:export-ydpi="3402.6707" />
  <path
     style="fill:#c50000;fill-opacity:1;stroke:none;stroke-width:2;stroke-linejoin:miter;stroke-miterlimit:4;stroke-dasharray:none;stroke-opacity:1"
     d="m 3.2204211,9.552303 8.76e-4,-0.46582 0.00226,0.447266 c 0.00125,0.245996 0.00372,0.45132 0.0055,0.456275 0.00192,0.0054 0.0054,0.0082 0.00858,0.007 0.00294,-0.0011 0.00535,-6.55e-4 0.00535,0.0011 0,0.0037 -0.016932,0.02009 -0.02076,0.02009 -0.00147,0 -0.00228,-0.209619 -0.0018,-0.465821 z"
     id="path4203"
     inkscape:connector-curvature="0"
     inkscape:export-xdpi="3402.6707"
     inkscape:export-ydpi="3402.6707" />
  <path
     style="fill:#c50000;fill-opacity:1;stroke:none;stroke-width:2;stroke-linejoin:miter;stroke-miterlimit:4;stroke-dasharray:none;stroke-opacity:1"
     d=""
     id="path4205"
     inkscape:connector-curvature="0" />
  <path
     style="fill:#c50000;fill-opacity:1;stroke:none;stroke-width:2;stroke-linejoin:miter;stroke-miterlimit:4;stroke-dasharray:none;stroke-opacity:1"
     d=""
     id="path4207"
     inkscape:connector-curvature="0" />
  <path
     style="fill:#c50000;fill-opacity:1;stroke:none;stroke-width:2;stroke-linejoin:miter;stroke-miterlimit:4;stroke-dasharray:none;stroke-opacity:1"
     d="m 1.8609735,8.569882 -8.033e-4,-0.03613 0.057617,8.6e-4 0.057617,8.61e-4 -0.055514,0.0012 -0.055513,0.0012 -0.0013,0.03407 -0.0013,0.03407 -8.032e-4,-0.03613 z"
     id="path4209"
     inkscape:connector-curvature="0"
     inkscape:export-xdpi="3402.6707"
     inkscape:export-ydpi="3402.6707" />
  <path
     style="fill:#c50000;fill-opacity:1;stroke:none;stroke-width:2;stroke-linejoin:miter;stroke-miterlimit:4;stroke-dasharray:none;stroke-opacity:1"
     d="m 1.8570183,8.568905 2.592e-4,-0.03711 0.00329,0.02828 c 0.00191,0.01644 0.0018,0.03197 -2.592e-4,0.03711 -0.00248,0.0062 -0.00347,-0.0024 -0.00329,-0.02828 z"
     id="path4211"
     inkscape:connector-curvature="0"
     inkscape:export-xdpi="3402.6707"
     inkscape:export-ydpi="3402.6707" />
  <path
     style="fill:#c50000;fill-opacity:1;stroke:none;stroke-width:2;stroke-linejoin:miter;stroke-miterlimit:4;stroke-dasharray:none;stroke-opacity:1"
     d="m 5.0177182,9.547872 c -0.02759,-0.03049 -0.0402,-0.124893 -0.03487,-0.261107 0.0037,-0.09372 0.01225,-0.133946 0.03381,-0.158445 l 0.01345,-0.01528 1.75e-4,0.222352 c 9.6e-5,0.122293 -6.83e-4,0.222351 -0.0017,0.222351 -0.0011,0 -0.0059,-0.0044 -0.01084,-0.0099 z"
     id="path4213"
     inkscape:connector-curvature="0"
     inkscape:export-xdpi="3402.6707"
     inkscape:export-ydpi="3402.6707" />
  <path
     style="fill:#c50000;fill-opacity:1;stroke:none;stroke-width:2;stroke-linejoin:miter;stroke-miterlimit:4;stroke-dasharray:none;stroke-opacity:1"
     d="m 5.1765792,9.596245 c -0.05551,-0.0046 -0.105846,-0.01391 -0.118496,-0.02199 -0.0053,-0.0034 0.14298,-0.0051 0.414321,-0.0048 l 0.422607,4.67e-4 -0.03315,0.01071 c -0.02118,0.0068 -0.06206,0.01258 -0.113248,0.01591 -0.09255,0.006 -0.498108,0.0058 -0.572038,-2.61e-4 z"
     id="path4215"
     inkscape:connector-curvature="0"
     inkscape:export-xdpi="3402.6707"
     inkscape:export-ydpi="3402.6707" />
  <path
     style="fill:#c50000;fill-opacity:1;stroke:none;stroke-width:2;stroke-linejoin:miter;stroke-miterlimit:4;stroke-dasharray:none;stroke-opacity:1"
     d="m 5.9426782,9.33459 c 1.25e-4,-0.163441 7e-4,-0.17988 0.0057,-0.164063 0.01671,0.05244 0.01496,0.29398 -0.0024,0.337173 -0.0021,0.0051 -0.0034,-0.06484 -0.0033,-0.17311 z"
     id="path4217"
     inkscape:connector-curvature="0"
     inkscape:export-xdpi="3402.6707"
     inkscape:export-ydpi="3402.6707" />
  <path
     style="fill:#c50000;fill-opacity:1;stroke:none;stroke-width:2;stroke-linejoin:miter;stroke-miterlimit:4;stroke-dasharray:none;stroke-opacity:1"
     d="m 5.1334512,9.079851 c 0.02909,-0.0051 0.648018,-0.0051 0.673828,-3.5e-5 0.01342,0.0026 -0.09227,0.0038 -0.337891,0.0038 -0.241621,-1.9e-5 -0.350461,-0.0012 -0.335937,-0.0038 z"
     id="path4219"
     inkscape:connector-curvature="0"
     inkscape:export-xdpi="3402.6707"
     inkscape:export-ydpi="3402.6707" />
  <path
     style="fill:#c50000;fill-opacity:1;stroke:none;stroke-width:2;stroke-linejoin:miter;stroke-miterlimit:4;stroke-dasharray:none;stroke-opacity:1"
     d="m 7.1571562,9.232682 c -0.150803,-0.02958 -0.287935,-0.162345 -0.318687,-0.308533 -0.0073,-0.03451 -0.0074,-0.09914 -2.34e-4,-0.132528 0.0058,-0.0271 0.02146,-0.07193 0.02418,-0.06921 9.01e-4,9e-4 -0.0022,0.01728 -0.0069,0.0364 -0.01132,0.04623 -0.01213,0.12237 -0.0018,0.167578 0.02575,0.112376 0.09669,0.203681 0.194093,0.249831 0.04568,0.02164 0.08426,0.03031 0.136373,0.03063 0.05043,3.16e-4 0.07798,-0.0045 0.121908,-0.02133 0.09914,-0.03797 0.174416,-0.123027 0.208605,-0.235699 0.0097,-0.0321 0.01069,-0.04092 0.01098,-0.101562 2.49e-4,-0.05366 -0.0011,-0.07165 -0.0071,-0.09375 -0.02963,-0.109448 -0.09464,-0.191198 -0.18791,-0.236311 -0.05536,-0.02678 -0.08284,-0.03299 -0.144531,-0.03266 -0.03907,2.07e-4 -0.05791,0.0022 -0.0817,0.0086 -0.017,0.0046 -0.03154,0.0078 -0.03231,0.007 -0.0025,-0.0025 0.04312,-0.02149 0.06721,-0.02807 0.03174,-0.0087 0.126815,-0.01223 0.154652,-0.0058 0.02683,0.0062 0.08558,0.0336 0.115281,0.05378 0.03202,0.02175 0.07591,0.06923 0.09649,0.104401 0.01927,0.03291 0.03903,0.08824 0.04538,0.127063 0.0075,0.04596 0.0093,0.113388 0.0043,0.161953 -0.01037,0.100517 -0.04279,0.170322 -0.108145,0.232818 -0.04954,0.04738 -0.08949,0.0687 -0.152941,0.08163 -0.04128,0.0084 -0.104616,0.01013 -0.137266,0.0037 z"
     id="path4221"
     inkscape:connector-curvature="0"
     inkscape:export-xdpi="3402.6707"
     inkscape:export-ydpi="3402.6707" />
  <path
     style="fill:#c50000;fill-opacity:1;stroke:none;stroke-width:2;stroke-linejoin:miter;stroke-miterlimit:4;stroke-dasharray:none;stroke-opacity:1"
     d="m 7.7757662,9.989863 c -0.02303,-0.01354 -0.04582,-0.03144 -0.06703,-0.05266 -0.02784,-0.02786 -0.035,-0.03803 -0.05361,-0.07617 -0.02635,-0.05401 -0.03607,-0.09308 -0.04135,-0.166281 -0.0057,-0.07919 7.72e-4,-0.112005 0.03569,-0.180473 0.04256,-0.08345 0.104381,-0.141563 0.184609,-0.17351 0.03898,-0.01552 0.07329,-0.02169 0.119699,-0.02151 0.0691,2.65e-4 0.08094,0.0058 0.01758,0.0081 -0.04794,0.0018 -0.05926,0.0036 -0.0918,0.01455 -0.155678,0.0524 -0.254547,0.210183 -0.238132,0.380036 0.01116,0.115462 0.06416,0.206957 0.157725,0.27225 0.0326,0.02275 0.0182,0.02005 -0.02337,-0.0044 z"
     id="path4223"
     inkscape:connector-curvature="0"
     inkscape:export-xdpi="3402.6707"
     inkscape:export-ydpi="3402.6707" />
  <path
     style="fill:#c50000;fill-opacity:1;stroke:none;stroke-width:2;stroke-linejoin:miter;stroke-miterlimit:4;stroke-dasharray:none;stroke-opacity:1"
     d="m 8.1320132,10.01327 c 0.108326,-0.06004 0.178616,-0.168749 0.188218,-0.291107 0.0076,-0.0969 -0.0169,-0.187095 -0.06982,-0.257009 -0.01083,-0.01431 -0.0189,-0.02681 -0.01793,-0.02778 0.0026,-0.0026 0.05834,0.06214 0.07474,0.08685 0.04178,0.06295 0.0592,0.145409 0.04926,0.233149 -0.01184,0.10446 -0.07879,0.192964 -0.185508,0.245228 -0.04752,0.02327 -0.07557,0.03095 -0.03897,0.01066 z"
     id="path4225"
     inkscape:connector-curvature="0"
     inkscape:export-xdpi="3402.6707"
     inkscape:export-ydpi="3402.6707" />
  <path
     style="fill:#c50000;fill-opacity:1;stroke:none;stroke-width:2;stroke-linejoin:miter;stroke-miterlimit:4;stroke-dasharray:none;stroke-opacity:1"
     d="m 8.6879152,9.235178 c -0.06883,-0.01433 -0.123402,-0.04721 -0.18164,-0.109428 -0.0637,-0.06804 -0.09769,-0.16016 -0.09763,-0.264527 4.5e-5,-0.07597 0.01563,-0.146828 0.04662,-0.211911 0.03502,-0.07357 0.0763,-0.123036 0.13423,-0.16085 0.05185,-0.03385 0.06467,-0.03712 0.135536,-0.0346 0.06817,0.0024 0.09644,0.0081 0.139588,0.02804 0.140297,0.06482 0.256304,0.181815 0.294656,0.297162 0.007,0.02119 0.0089,0.03541 0.0088,0.06607 -1.92e-4,0.0434 -0.0042,0.05811 -0.02974,0.109375 -0.06837,0.137197 -0.1882,0.241807 -0.313223,0.27344 -0.0311,0.0079 -0.0474,0.0097 -0.08399,0.0093 -0.02497,-2.5e-4 -0.04891,-0.0012 -0.05321,-0.0021 z m 0.171875,-0.04027 c 0.115328,-0.03725 0.197951,-0.123145 0.235006,-0.244305 0.01005,-0.03287 0.01075,-0.03972 0.01066,-0.105468 -8.8e-5,-0.06505 -8.81e-4,-0.07288 -0.0106,-0.104642 -0.03378,-0.110383 -0.112162,-0.198033 -0.209915,-0.234726 -0.190237,-0.07141 -0.393888,0.04039 -0.447404,0.245618 -0.0085,0.0325 -0.01022,0.04792 -0.01036,0.0918 -2.35e-4,0.07317 0.01172,0.122836 0.04395,0.182589 0.04734,0.08776 0.125117,0.149469 0.217987,0.172943 0.04304,0.01088 0.131303,0.0089 0.170674,-0.0038 z"
     id="path4227"
     inkscape:connector-curvature="0"
     inkscape:export-xdpi="3402.6707"
     inkscape:export-ydpi="3402.6707" />
  <path
     style="fill:#c50000;fill-opacity:1;stroke:none;stroke-width:2;stroke-linejoin:miter;stroke-miterlimit:4;stroke-dasharray:none;stroke-opacity:1"
     d="m 8.1091632,8.325564 c 0.03493,-0.01451 0.08444,-0.04937 0.112819,-0.07946 0.0691,-0.07325 0.104523,-0.170955 0.09935,-0.274018 -0.0034,-0.06867 -0.02195,-0.130648 -0.05367,-0.179723 -0.0086,-0.01336 -0.01487,-0.02514 -0.01384,-0.02616 10e-4,-0.001 0.01348,0.0128 0.02767,0.03072 0.03197,0.04037 0.06192,0.09996 0.07233,0.143913 0.0097,0.0409 0.01039,0.09867 0.0017,0.137901 -0.0079,0.03576 -0.03419,0.09149 -0.05766,0.122465 -0.04004,0.05282 -0.113525,0.107412 -0.167584,0.124489 -0.03893,0.0123 -0.05084,0.01223 -0.02109,-1.27e-4 z"
     id="path4229"
     inkscape:connector-curvature="0"
     inkscape:export-xdpi="3402.6707"
     inkscape:export-ydpi="3402.6707" />
  <path
     style="fill:#c50000;fill-opacity:1;stroke:none;stroke-width:2;stroke-linejoin:miter;stroke-miterlimit:4;stroke-dasharray:none;stroke-opacity:1"
     d="m 7.7961902,8.305108 c -0.06142,-0.03087 -0.110714,-0.0809 -0.141466,-0.143569 -0.02251,-0.04587 -0.03317,-0.08421 -0.03941,-0.141783 -0.0108,-0.09963 0.0093,-0.179015 0.06411,-0.253397 0.05932,-0.08046 0.157529,-0.138625 0.232534,-0.137705 l 0.02595,3.19e-4 -0.02711,0.0058 c -0.125637,0.02693 -0.229519,0.133136 -0.262079,0.267946 -0.0087,0.036 -0.01138,0.09714 -0.0061,0.137716 0.0061,0.04627 0.026,0.103801 0.04962,0.143304 0.02434,0.04071 0.07268,0.09043 0.112812,0.116047 0.03637,0.02321 0.03195,0.02585 -0.0089,0.0053 z"
     id="path4231"
     inkscape:connector-curvature="0"
     inkscape:export-xdpi="3402.6707"
     inkscape:export-ydpi="3402.6707" />
</svg>
