<?xml version="1.0" encoding="UTF-8" standalone="no"?>
<svg
   xmlns:dc="http://purl.org/dc/elements/1.1/"
   xmlns:cc="http://creativecommons.org/ns#"
   xmlns:rdf="http://www.w3.org/1999/02/22-rdf-syntax-ns#"
   xmlns:svg="http://www.w3.org/2000/svg"
   xmlns="http://www.w3.org/2000/svg"
   xmlns:sodipodi="http://sodipodi.sourceforge.net/DTD/sodipodi-0.dtd"
   xmlns:inkscape="http://www.inkscape.org/namespaces/inkscape"
   width="24"
   height="24"
   viewBox="0 0 24 24"
   id="svg2"
   version="1.1"
   inkscape:version="0.91 r13725"
   sodipodi:docname="update.svg">
  <metadata
     id="metadata10">
    <rdf:RDF>
      <cc:Work
         rdf:about="">
        <dc:format>image/svg+xml</dc:format>
        <dc:type
           rdf:resource="http://purl.org/dc/dcmitype/StillImage" />
      </cc:Work>
    </rdf:RDF>
  </metadata>
  <defs
     id="defs8" />
  <sodipodi:namedview
     pagecolor="#ffffff"
     bordercolor="#666666"
     borderopacity="1"
     objecttolerance="10"
     gridtolerance="10"
     guidetolerance="10"
     inkscape:pageopacity="0"
     inkscape:pageshadow="2"
     inkscape:window-width="1366"
     inkscape:window-height="705"
     id="namedview6"
     showgrid="false"
     inkscape:zoom="13.940208"
     inkscape:cx="3.5418796"
     inkscape:cy="10.790751"
     inkscape:window-x="-8"
     inkscape:window-y="-8"
     inkscape:window-maximized="1"
     inkscape:current-layer="svg2" />
  <path
     d="M12 0c-6.627 0-12 5.373-12 12s5.373 12 12 12 12-5.373 12-12-5.373-12-12-12zm-.994 9.095l2.974-2.884c.144-.14.331-.211.516-.211.188 0 .375.073.518.22l-4.032 3.911c-.283-.294-.268-.752.024-1.036zm-4.49 8.819c-.06.057-.136.086-.212.086-.168 0-.304-.137-.304-.304 0-.079.031-.159.093-.218l.5-.485.422.436-.499.485zm4.034-2.386c-.919.891-1.796 1.333-3.013 1.728l-.754-.779c.433-1.205.901-2.067 1.819-2.958l1.71-1.657 1.946 2.009-1.708 1.657zm6.965-6.483l-4.402 4.269-2.218-2.29 4.402-4.27c1.016-.984 2.703-.246 2.703 1.146 0 .416-.162.832-.485 1.145z"
     id="path4"
     style="fill:#c50000;fill-opacity:1" />
</svg>
